<?xml version="1.0" encoding="UTF-8"?>
<svg version="1.1" xmlns="http://www.w3.org/2000/svg" width="797" height="797">
<path d="M0 0 C263.01 0 526.02 0 797 0 C797 263.01 797 526.02 797 797 C533.99 797 270.98 797 0 797 C0 533.99 0 270.98 0 0 Z " fill="#0F4475" transform="translate(0,0)"/>
<path d="M0 0 C263.01 0 526.02 0 797 0 C797 263.01 797 526.02 797 797 C533.99 797 270.98 797 0 797 C0 533.99 0 270.98 0 0 Z M288 38 C288 46.58 288 55.16 288 64 C265.89 64 243.78 64 221 64 C221 72.58 221 81.16 221 90 C200.21 90 179.42 90 158 90 C158 98.91 158 107.82 158 117 C148.1 117 138.2 117 128 117 C128 125.58 128 134.16 128 143 C118.1 143 108.2 143 98 143 C98 159.83 98 176.66 98 194 C88.1 194 78.2 194 68 194 C68 237.56 68 281.12 68 326 C77.9 326 87.8 326 98 326 C98 343.49 98 360.98 98 379 C107.9 379 117.8 379 128 379 C128 396.16 128 413.32 128 431 C137.57 431 147.14 431 157 431 C157 454.76 157 478.52 157 503 C165.91 503 174.82 503 184 503 C184 536.99 184 570.98 184 606 C191.59 606 199.18 606 207 606 C207 631.41 207 656.82 207 683 C216.57 683 226.14 683 236 683 C236 699.5 236 716 236 733 C244.91 733 253.82 733 263 733 C263 742.24 263 751.48 263 761 C357.38 761 451.76 761 549 761 C549 751.76 549 742.52 549 733 C558.24 733 567.48 733 577 733 C577 716.5 577 700 577 683 C586.57 683 596.14 683 606 683 C606 657.26 606 631.52 606 605 C614.91 605 623.82 605 633 605 C633 571.34 633 537.68 633 503 C642.24 503 651.48 503 661 503 C661 478.91 661 454.82 661 430 C670.57 430 680.14 430 690 430 C690 412.84 690 395.68 690 378 C700.23 378 710.46 378 721 378 C721 360.84 721 343.68 721 326 C730.57 326 740.14 326 750 326 C750 282.44 750 238.88 750 194 C740.1 194 730.2 194 720 194 C720 177.17 720 160.34 720 143 C710.43 143 700.86 143 691 143 C691 134.42 691 125.84 691 117 C681.1 117 671.2 117 661 117 C661 108.09 661 99.18 661 90 C640.54 90 620.08 90 599 90 C599 81.42 599 72.84 599 64 C575.9 64 552.8 64 529 64 C529 55.42 529 46.84 529 38 C449.47 38 369.94 38 288 38 Z " fill="#FCFCFC" transform="translate(0,0)"/>
<path d="M0 0 C11.12539675 0.01138265 22.25079427 0.01672721 33.37619543 0.021703 C56.17615931 0.03202847 78.97611198 0.04971587 101.77606702 0.07202661 C101.77606702 8.98202661 101.77606702 17.89202661 101.77606702 27.07202661 C124.54606702 27.07202661 147.31606702 27.07202661 170.77606702 27.07202661 C170.77606702 35.98202661 170.77606702 44.89202661 170.77606702 54.07202661 C182.32606702 54.07202661 193.87606702 54.07202661 205.77606702 54.07202661 C205.77606702 62.32202661 205.77606702 70.57202661 205.77606702 79.07202661 C215.34606702 79.07202661 224.91606702 79.07202661 234.77606702 79.07202661 C234.77606702 101.84202661 234.77606702 124.61202661 234.77606702 148.07202661 C228.50606702 148.07202661 222.23606702 148.07202661 215.77606702 148.07202661 C215.44606702 141.47202661 215.11606702 134.87202661 214.77606702 128.07202661 C205.86606702 128.07202661 196.95606702 128.07202661 187.77606702 128.07202661 C187.77606702 119.82202661 187.77606702 111.57202661 187.77606702 103.07202661 C177.87606702 103.07202661 167.97606702 103.07202661 157.77606702 103.07202661 C157.77606702 95.15202661 157.77606702 87.23202661 157.77606702 79.07202661 C148.53606702 79.07202661 139.29606702 79.07202661 129.77606702 79.07202661 C129.77606702 86.99202661 129.77606702 94.91202661 129.77606702 103.07202661 C122.18606702 103.07202661 114.59606702 103.07202661 106.77606702 103.07202661 C106.77606702 86.57202661 106.77606702 70.07202661 106.77606702 53.07202661 C97.86606702 53.07202661 88.95606702 53.07202661 79.77606702 53.07202661 C79.77606702 44.82202661 79.77606702 36.57202661 79.77606702 28.07202661 C70.53606702 28.07202661 61.29606702 28.07202661 51.77606702 28.07202661 C51.77606702 36.65202661 51.77606702 45.23202661 51.77606702 54.07202661 C41.87606702 54.07202661 31.97606702 54.07202661 21.77606702 54.07202661 C21.77606702 45.16202661 21.77606702 36.25202661 21.77606702 27.07202661 C11.87606702 27.07202661 1.97606702 27.07202661 -8.22393298 27.07202661 C-8.22393298 35.98202661 -8.22393298 44.89202661 -8.22393298 54.07202661 C-18.12393298 54.07202661 -28.02393298 54.07202661 -38.22393298 54.07202661 C-38.22393298 45.16202661 -38.22393298 36.25202661 -38.22393298 27.07202661 C-47.79393298 27.07202661 -57.36393298 27.07202661 -67.22393298 27.07202661 C-67.22393298 35.65202661 -67.22393298 44.23202661 -67.22393298 53.07202661 C-76.13393298 53.07202661 -85.04393298 53.07202661 -94.22393298 53.07202661 C-94.22393298 61.32202661 -94.22393298 69.57202661 -94.22393298 78.07202661 C-101.81393298 78.07202661 -109.40393298 78.07202661 -117.22393298 78.07202661 C-117.22393298 69.82202661 -117.22393298 61.57202661 -117.22393298 53.07202661 C-125.80393298 53.07202661 -134.38393298 53.07202661 -143.22393298 53.07202661 C-143.22393298 61.32202661 -143.22393298 69.57202661 -143.22393298 78.07202661 C-151.14393298 78.07202661 -159.06393298 78.07202661 -167.22393298 78.07202661 C-167.22393298 86.32202661 -167.22393298 94.57202661 -167.22393298 103.07202661 C-175.80393298 103.07202661 -184.38393298 103.07202661 -193.22393298 103.07202661 C-193.22393298 111.32202661 -193.22393298 119.57202661 -193.22393298 128.07202661 C-176.72393298 128.07202661 -160.22393298 128.07202661 -143.22393298 128.07202661 C-143.22393298 134.67202661 -143.22393298 141.27202661 -143.22393298 148.07202661 C-135.63393298 148.07202661 -128.04393298 148.07202661 -120.22393298 148.07202661 C-120.22393298 155.99202661 -120.22393298 163.91202661 -120.22393298 172.07202661 C-67.42393298 172.07202661 -14.62393298 172.07202661 39.77606702 172.07202661 C39.77606702 164.15202661 39.77606702 156.23202661 39.77606702 148.07202661 C61.55606702 148.07202661 83.33606702 148.07202661 105.77606702 148.07202661 C105.77606702 164.24202661 105.77606702 180.41202661 105.77606702 197.07202661 C98.84606702 197.07202661 91.91606702 197.07202661 84.77606702 197.07202661 C84.77606702 206.31202661 84.77606702 215.55202661 84.77606702 225.07202661 C91.70606702 225.07202661 98.63606702 225.07202661 105.77606702 225.07202661 C105.77606702 233.32202661 105.77606702 241.57202661 105.77606702 250.07202661 C115.67606702 250.07202661 125.57606702 250.07202661 135.77606702 250.07202661 C135.77606702 261.29202661 135.77606702 272.51202661 135.77606702 284.07202661 C129.17606702 284.07202661 122.57606702 284.07202661 115.77606702 284.07202661 C115.77606702 292.65202661 115.77606702 301.23202661 115.77606702 310.07202661 C108.18606702 310.07202661 100.59606702 310.07202661 92.77606702 310.07202661 C92.77606702 317.00202661 92.77606702 323.93202661 92.77606702 331.07202661 C79.90606702 331.07202661 67.03606702 331.07202661 53.77606702 331.07202661 C53.77606702 315.56202661 53.77606702 300.05202661 53.77606702 284.07202661 C46.84606702 284.07202661 39.91606702 284.07202661 32.77606702 284.07202661 C32.77606702 292.65202661 32.77606702 301.23202661 32.77606702 310.07202661 C21.0476001 310.09480169 9.31914836 310.11306958 -2.40933585 310.12383878 C-7.85787867 310.12901268 -13.30640532 310.13600785 -18.75493884 310.14746606 C-24.03290405 310.15849354 -29.3108539 310.16434455 -34.58882976 310.16690385 C-36.58219591 310.16872294 -38.57556141 310.17227288 -40.56892085 310.17775667 C-54.82010883 310.21533011 -68.9880534 309.76898904 -83.22393298 309.07202661 C-83.22393298 316.33202661 -83.22393298 323.59202661 -83.22393298 331.07202661 C-106.32393298 331.07202661 -129.42393298 331.07202661 -153.22393298 331.07202661 C-153.22393298 323.81202661 -153.22393298 316.55202661 -153.22393298 309.07202661 C-161.14393298 309.07202661 -169.06393298 309.07202661 -177.22393298 309.07202661 C-177.22393298 302.47202661 -177.22393298 295.87202661 -177.22393298 289.07202661 C-170.95393298 289.07202661 -164.68393298 289.07202661 -158.22393298 289.07202661 C-158.22393298 280.16202661 -158.22393298 271.25202661 -158.22393298 262.07202661 C-170.10393298 262.07202661 -181.98393298 262.07202661 -194.22393298 262.07202661 C-194.22393298 257.78202661 -194.22393298 253.49202661 -194.22393298 249.07202661 C-185.97393298 249.07202661 -177.72393298 249.07202661 -169.22393298 249.07202661 C-169.22393298 231.91202661 -169.22393298 214.75202661 -169.22393298 197.07202661 C-177.14393298 197.07202661 -185.06393298 197.07202661 -193.22393298 197.07202661 C-193.22393298 174.63202661 -193.22393298 152.19202661 -193.22393298 129.07202661 C-201.47393298 129.07202661 -209.72393298 129.07202661 -218.22393298 129.07202661 C-218.22393298 135.01202661 -218.22393298 140.95202661 -218.22393298 147.07202661 C-226.47393298 147.07202661 -234.72393298 147.07202661 -243.22393298 147.07202661 C-243.22393298 148.72202661 -243.22393298 150.37202661 -243.22393298 152.07202661 C-251.80393298 152.07202661 -260.38393298 152.07202661 -269.22393298 152.07202661 C-269.22393298 127.98202661 -269.22393298 103.89202661 -269.22393298 79.07202661 C-259.65393298 79.07202661 -250.08393298 79.07202661 -240.22393298 79.07202661 C-240.22393298 70.82202661 -240.22393298 62.57202661 -240.22393298 54.07202661 C-229.00393298 54.07202661 -217.78393298 54.07202661 -206.22393298 54.07202661 C-206.22393298 45.16202661 -206.22393298 36.25202661 -206.22393298 27.07202661 C-183.78393298 27.07202661 -161.34393298 27.07202661 -138.22393298 27.07202661 C-138.22393298 18.49202661 -138.22393298 9.91202661 -138.22393298 1.07202661 C-92.15655688 -0.26027735 -46.08176694 -0.04801835 0 0 Z " fill="#FCD995" transform="translate(427.2239329814911,115.92797338962555)"/>
<path d="M0 0 C33.99 0 67.98 0 103 0 C103 5.61 103 11.22 103 17 C172.63 17 242.26 17 314 17 C314 44.06 314 71.12 314 99 C306.08 99 298.16 99 290 99 C290 132.66 290 166.32 290 201 C280.43 201 270.86 201 261 201 C261 218.49 261 235.98 261 254 C252.42 254 243.84 254 235 254 C235 261.92 235 269.84 235 278 C191.44 278 147.88 278 103 278 C103 270.08 103 262.16 103 254 C95.08 254 87.16 254 79 254 C79 245.09 79 236.18 79 227 C60.19 227 41.38 227 22 227 C22 201.59 22 176.18 22 150 C14.41 150 6.82 150 -1 150 C-1 149.67 -1 149.34 -1 149 C6.92 149 14.84 149 23 149 C23 174.41 23 199.82 23 226 C32.24 226 41.48 226 51 226 C51 174.85 51 123.7 51 71 C41.76 71 32.52 71 23 71 C23 63.08 23 55.16 23 47 C15.41 47 7.82 47 0 47 C0 31.49 0 15.98 0 0 Z " fill="#31B1FD" transform="translate(185,456)"/>
<path d="M0 0 C9.57 0 19.14 0 29 0 C29 8.91 29 17.82 29 27 C38.9 27 48.8 27 59 27 C59 18.09 59 9.18 59 0 C68.9 0 78.8 0 89 0 C89 8.91 89 17.82 89 27 C98.9 27 108.8 27 119 27 C119 18.42 119 9.84 119 1 C128.24 1 137.48 1 147 1 C147 9.25 147 17.5 147 26 C155.91 26 164.82 26 174 26 C174 42.5 174 59 174 76 C181.59 76 189.18 76 197 76 C197 68.08 197 60.16 197 52 C206.24 52 215.48 52 225 52 C225 59.92 225 67.84 225 76 C234.9 76 244.8 76 255 76 C255 84.25 255 92.5 255 101 C264.24 100.67 273.48 100.34 283 100 C283 106.93 283 113.86 283 121 C289.6 121 296.2 121 303 121 C303 121.33 303 121.66 303 122 C296.4 122 289.8 122 283 122 C283 129.92 283 137.84 283 146 C288.94 146 294.88 146 301 146 C301.70595567 168.01068932 302.14617308 189.97658866 302 212 C294.41 212 286.82 212 279 212 C279.03917794 217.23443069 279.03917794 217.23443069 279.09008789 222.46875 C279.09383423 223.47421875 279.09383423 223.47421875 279.09765625 224.5 C279.10551147 225.50546875 279.10551147 225.50546875 279.11352539 226.53125 C278.95232216 230.03681363 278.43527114 233.51783087 278 237 C260.51 237 243.02 237 225 237 C225 243.6 225 250.2 225 257 C218.07 257 211.14 257 204 257 C204 270.86 204 284.72 204 299 C190.14 299 176.28 299 162 299 C161.67 300.65 161.34 302.3 161 304 C160.67 304 160.34 304 160 304 C160 297.07 160 290.14 160 283 C167.59 283 175.18 283 183 283 C183 274.42 183 265.84 183 257 C189.6 257 196.2 257 203 257 C203 245.78 203 234.56 203 223 C193.1 223 183.2 223 173 223 C173 214.75 173 206.5 173 198 C166.07 198 159.14 198 152 198 C152 188.76 152 179.52 152 170 C158.93 170 165.86 170 173 170 C173 153.83 173 137.66 173 121 C151.22 121 129.44 121 107 121 C107 128.92 107 136.84 107 145 C54.2 145 1.4 145 -53 145 C-53 137.08 -53 129.16 -53 121 C-60.59 121 -68.18 121 -76 121 C-76 114.4 -76 107.8 -76 101 C-92.5 101 -109 101 -126 101 C-126 92.75 -126 84.5 -126 76 C-117.42 76 -108.84 76 -100 76 C-100 67.75 -100 59.5 -100 51 C-92.08 51 -84.16 51 -76 51 C-76 42.75 -76 34.5 -76 26 C-67.42 26 -58.84 26 -50 26 C-50 34.25 -50 42.5 -50 51 C-42.41 51 -34.82 51 -27 51 C-27 42.75 -27 34.5 -27 26 C-18.09 26 -9.18 26 0 26 C0 17.42 0 8.84 0 0 Z " fill="#352017" transform="translate(360,143)"/>
<path d="M0 0 C0.33 0 0.66 0 1 0 C1 5.28 1 10.56 1 16 C77.56 16 154.12 16 233 16 C233 10.72 233 5.44 233 0 C269.96 0 306.92 0 345 0 C345 49.17 345 98.34 345 149 C336.09 149 327.18 149 318 149 C318 174.74 318 200.48 318 227 C308.43 227 298.86 227 289 227 C289 243.5 289 260 289 277 C279.76 277 270.52 277 261 277 C261 286.24 261 295.48 261 305 C166.62 305 72.24 305 -25 305 C-25 295.76 -25 286.52 -25 277 C-33.91 277 -42.82 277 -52 277 C-52 260.5 -52 244 -52 227 C-42.76 227 -33.52 227 -24 227 C-24 235.91 -24 244.82 -24 254 C-16.08 254 -8.16 254 0 254 C0 261.92 0 269.84 0 278 C43.56 278 87.12 278 132 278 C132 270.08 132 262.16 132 254 C140.58 254 149.16 254 158 254 C158 236.51 158 219.02 158 201 C167.57 201 177.14 201 187 201 C187 167.34 187 133.68 187 99 C194.92 99 202.84 99 211 99 C211 71.94 211 44.88 211 17 C141.37 17 71.74 17 0 17 C0 11.39 0 5.78 0 0 Z " fill="#004F98" transform="translate(288,456)"/>
<path d="M0 0 C79.53 0 159.06 0 241 0 C241 8.58 241 17.16 241 26 C264.1 26 287.2 26 311 26 C311 34.58 311 43.16 311 52 C331.46 52 351.92 52 373 52 C373 60.91 373 69.82 373 79 C382.9 79 392.8 79 403 79 C403 87.58 403 96.16 403 105 C412.57 105 422.14 105 432 105 C432 121.83 432 138.66 432 156 C441.9 156 451.8 156 462 156 C462 199.56 462 243.12 462 288 C452.43 288 442.86 288 433 288 C433 305.16 433 322.32 433 340 C422.77 340 412.54 340 402 340 C402 357.16 402 374.32 402 392 C376.83651112 393.02725735 351.6880385 393.30611329 326.5067749 393.53222656 C320.90748578 393.58329486 315.30823767 393.63852621 309.70898438 393.69335938 C298.80602496 393.79954186 287.90302928 393.90127135 277 394 C276.338702 389.56334815 275.87909328 385.33499704 275.90234375 380.84765625 C275.90556641 379.74228516 275.90878906 378.63691406 275.91210938 377.49804688 C275.92048828 376.36431641 275.92886719 375.23058594 275.9375 374.0625 C275.94201172 372.90169922 275.94652344 371.74089844 275.95117188 370.54492188 C275.9628934 367.6965922 275.98082677 364.84828926 276 362 C282.93 362 289.86 362 297 362 C297 355.4 297 348.8 297 342 C314.49 342 331.98 342 350 342 C350.33 333.75 350.66 325.5 351 317 C358.59 317 366.18 317 374 317 C373.9278125 315.25203125 373.855625 313.5040625 373.78125 311.703125 C372.99944317 291.45976317 372.89558706 271.25611098 373 251 C367.06 251 361.12 251 355 251 C355 243.08 355 235.16 355 227 C361.27 226.67 367.54 226.34 374 226 C374 203.23 374 180.46 374 157 C364.43 157 354.86 157 345 157 C345 148.75 345 140.5 345 132 C333.45 132 321.9 132 310 132 C310 123.09 310 114.18 310 105 C287.23 105 264.46 105 241 105 C240.35834594 87.67534025 240 70.33653817 240 53 C161.13 53 82.26 53 1 53 C1 60.92 1 68.84 1 77 C0.67 77 0.34 77 0 77 C0 60.5 0 44 0 27 C79.2 27 158.4 27 240 27 C240 18.42 240 9.84 240 1 C160.8 1 81.6 1 0 1 C0 0.67 0 0.34 0 0 Z " fill="#0E4C8A" transform="translate(288,38)"/>
<path d="M0 0 C51.81 0 103.62 0 157 0 C157 26.73 157 53.46 157 81 C149.08 81 141.16 81 133 81 C133 114.66 133 148.32 133 183 C123.43 183 113.86 183 104 183 C104 200.49 104 217.98 104 236 C95.42 236 86.84 236 78 236 C78 243.92 78 251.84 78 260 C34.44 260 -9.12 260 -54 260 C-54 252.08 -54 244.16 -54 236 C-53.67 236 -53.34 236 -53 236 C-53 243.59 -53 251.18 -53 259 C-26.93 259 -0.86 259 26 259 C26 226.66 26 194.32 26 161 C17.42 161 8.84 161 0 161 C0 107.87 0 54.74 0 0 Z " fill="#1182D9" transform="translate(342,474)"/>
<path d="M0 0 C11.12539675 0.01138265 22.25079427 0.01672721 33.37619543 0.021703 C56.17615931 0.03202847 78.97611198 0.04971587 101.77606702 0.07202661 C101.77606702 8.98202661 101.77606702 17.89202661 101.77606702 27.07202661 C124.54606702 27.07202661 147.31606702 27.07202661 170.77606702 27.07202661 C170.77606702 35.98202661 170.77606702 44.89202661 170.77606702 54.07202661 C182.32606702 54.07202661 193.87606702 54.07202661 205.77606702 54.07202661 C205.77606702 62.32202661 205.77606702 70.57202661 205.77606702 79.07202661 C215.34606702 79.07202661 224.91606702 79.07202661 234.77606702 79.07202661 C234.77606702 101.84202661 234.77606702 124.61202661 234.77606702 148.07202661 C228.50606702 148.07202661 222.23606702 148.07202661 215.77606702 148.07202661 C215.44606702 141.47202661 215.11606702 134.87202661 214.77606702 128.07202661 C205.86606702 128.07202661 196.95606702 128.07202661 187.77606702 128.07202661 C187.77606702 119.82202661 187.77606702 111.57202661 187.77606702 103.07202661 C177.87606702 103.07202661 167.97606702 103.07202661 157.77606702 103.07202661 C157.77606702 95.15202661 157.77606702 87.23202661 157.77606702 79.07202661 C148.53606702 79.07202661 139.29606702 79.07202661 129.77606702 79.07202661 C129.77606702 86.99202661 129.77606702 94.91202661 129.77606702 103.07202661 C122.18606702 103.07202661 114.59606702 103.07202661 106.77606702 103.07202661 C106.77606702 86.57202661 106.77606702 70.07202661 106.77606702 53.07202661 C97.86606702 53.07202661 88.95606702 53.07202661 79.77606702 53.07202661 C79.77606702 44.82202661 79.77606702 36.57202661 79.77606702 28.07202661 C70.53606702 28.07202661 61.29606702 28.07202661 51.77606702 28.07202661 C51.77606702 36.65202661 51.77606702 45.23202661 51.77606702 54.07202661 C41.87606702 54.07202661 31.97606702 54.07202661 21.77606702 54.07202661 C21.77606702 45.16202661 21.77606702 36.25202661 21.77606702 27.07202661 C11.87606702 27.07202661 1.97606702 27.07202661 -8.22393298 27.07202661 C-8.22393298 35.98202661 -8.22393298 44.89202661 -8.22393298 54.07202661 C-18.12393298 54.07202661 -28.02393298 54.07202661 -38.22393298 54.07202661 C-38.22393298 45.16202661 -38.22393298 36.25202661 -38.22393298 27.07202661 C-47.79393298 27.07202661 -57.36393298 27.07202661 -67.22393298 27.07202661 C-67.22393298 35.65202661 -67.22393298 44.23202661 -67.22393298 53.07202661 C-76.13393298 53.07202661 -85.04393298 53.07202661 -94.22393298 53.07202661 C-94.22393298 61.32202661 -94.22393298 69.57202661 -94.22393298 78.07202661 C-101.81393298 78.07202661 -109.40393298 78.07202661 -117.22393298 78.07202661 C-117.22393298 69.82202661 -117.22393298 61.57202661 -117.22393298 53.07202661 C-125.80393298 53.07202661 -134.38393298 53.07202661 -143.22393298 53.07202661 C-143.22393298 61.32202661 -143.22393298 69.57202661 -143.22393298 78.07202661 C-151.14393298 78.07202661 -159.06393298 78.07202661 -167.22393298 78.07202661 C-167.22393298 86.32202661 -167.22393298 94.57202661 -167.22393298 103.07202661 C-175.80393298 103.07202661 -184.38393298 103.07202661 -193.22393298 103.07202661 C-193.22393298 111.32202661 -193.22393298 119.57202661 -193.22393298 128.07202661 C-201.47393298 128.07202661 -209.72393298 128.07202661 -218.22393298 128.07202661 C-218.22393298 134.34202661 -218.22393298 140.61202661 -218.22393298 147.07202661 C-226.47393298 147.07202661 -234.72393298 147.07202661 -243.22393298 147.07202661 C-243.22393298 148.72202661 -243.22393298 150.37202661 -243.22393298 152.07202661 C-251.80393298 152.07202661 -260.38393298 152.07202661 -269.22393298 152.07202661 C-269.22393298 127.98202661 -269.22393298 103.89202661 -269.22393298 79.07202661 C-259.65393298 79.07202661 -250.08393298 79.07202661 -240.22393298 79.07202661 C-240.22393298 70.82202661 -240.22393298 62.57202661 -240.22393298 54.07202661 C-229.00393298 54.07202661 -217.78393298 54.07202661 -206.22393298 54.07202661 C-206.22393298 45.16202661 -206.22393298 36.25202661 -206.22393298 27.07202661 C-183.78393298 27.07202661 -161.34393298 27.07202661 -138.22393298 27.07202661 C-138.22393298 18.49202661 -138.22393298 9.91202661 -138.22393298 1.07202661 C-92.15655688 -0.26027735 -46.08176694 -0.04801835 0 0 Z " fill="#FBFAFA" transform="translate(427.2239329814911,115.92797338962555)"/>
<path d="M0 0 C9.57 0 19.14 0 29 0 C29 8.91 29 17.82 29 27 C38.9 27 48.8 27 59 27 C59 18.09 59 9.18 59 0 C68.9 0 78.8 0 89 0 C89 8.91 89 17.82 89 27 C98.9 27 108.8 27 119 27 C119.11374548 43.03811257 118.65751023 58.97318811 118 75 C107.77 75 97.54 75 87 75 C87 66.75 87 58.5 87 50 C77.76 50 68.52 50 59 50 C59 58.58 59 67.16 59 76 C48.77 76 38.54 76 28 76 C28 91.18 28 106.36 28 122 C38.23 122 48.46 122 59 122 C59 115.07 59 108.14 59 101 C67.91 101 76.82 101 86 101 C86 107.6 86 114.2 86 121 C92.93 121 99.86 121 107 121 C107 128.92 107 136.84 107 145 C54.2 145 1.4 145 -53 145 C-53 137.08 -53 129.16 -53 121 C-60.59 121 -68.18 121 -76 121 C-76 114.4 -76 107.8 -76 101 C-92.5 101 -109 101 -126 101 C-126 92.75 -126 84.5 -126 76 C-117.42 76 -108.84 76 -100 76 C-100 67.75 -100 59.5 -100 51 C-92.08 51 -84.16 51 -76 51 C-76 42.75 -76 34.5 -76 26 C-67.42 26 -58.84 26 -50 26 C-50 34.25 -50 42.5 -50 51 C-42.41 51 -34.82 51 -27 51 C-27 42.75 -27 34.5 -27 26 C-18.09 26 -9.18 26 0 26 C0 17.42 0 8.84 0 0 Z " fill="#362117" transform="translate(360,143)"/>
<path d="M0 0 C6.93 0 13.86 0 21 0 C21 15.51 21 31.02 21 47 C34.2 47 47.4 47 61 47 C61 40.73 61 34.46 61 28 C61.33 28 61.66 28 62 28 C62 32.62 62 37.24 62 42 C75.86 42 89.72 42 104 42 C104 36.39 104 30.78 104 25 C104.33 25 104.66 25 105 25 C105.33 26.98 105.66 28.96 106 31 C137.35 31 168.7 31 201 31 C201 54.76 201 78.52 201 103 C191.76 103 182.52 103 173 103 C173 87.49 173 71.98 173 56 C136.04 56 99.08 56 61 56 C61 61.28 61 66.56 61 72 C-15.56 72 -92.12 72 -171 72 C-171 66.72 -171 61.44 -171 56 C-205.32 55.67 -239.64 55.34 -275 55 C-275 47.08 -275 39.16 -275 31 C-253.55 31 -232.1 31 -210 31 C-210 29.02 -210 27.04 -210 25 C-202.08 25 -194.16 25 -186 25 C-186 32.26 -186 39.52 -186 47 C-162.9 47 -139.8 47 -116 47 C-116 39.74 -116 32.48 -116 25 C-100.80105872 24.97940174 -85.60794478 25.04499292 -70.41015625 25.21875 C-68.35794696 25.24127993 -66.30573644 25.26369784 -64.25352478 25.28601074 C-58.93881988 25.34408741 -53.62413273 25.40365073 -48.30944824 25.46356201 C-42.85149133 25.52481244 -37.39351844 25.58460397 -31.93554688 25.64453125 C-21.29034865 25.76162161 -10.64517059 25.8804235 0 26 C0 17.42 0 8.84 0 0 Z " fill="#01244F" transform="translate(460,400)"/>
<path d="M0 0 C8.25 0 16.5 0 25 0 C25 7.59 25 15.18 25 23 C26.5984375 22.98839844 28.196875 22.97679687 29.84375 22.96484375 C32.0624988 22.95544227 34.28124891 22.94634468 36.5 22.9375 C38.05847656 22.92493164 38.05847656 22.92493164 39.6484375 22.91210938 C51.47759014 22.87731775 63.13489511 23.50562063 75 24 C75 41.16 75 58.32 75 76 C66.75 76 58.5 76 50 76 C50 80.29 50 84.58 50 89 C61.88 89 73.76 89 86 89 C86 97.91 86 106.82 86 116 C79.73 116 73.46 116 67 116 C67 124.58 67 133.16 67 142 C45.22 142 23.44 142 1 142 C1 133.09 1 124.18 1 115 C-7.91 115 -16.82 115 -26 115 C-26 106.42 -26 97.84 -26 89 C-35.57 89 -45.14 89 -55 89 C-55 63.26 -55 37.52 -55 11 C-36.61486403 10.4069311 -18.37224782 9.84474157 0 10 C0 6.7 0 3.4 0 0 Z " fill="#0162B4" transform="translate(183,289)"/>
<path d="M0 0 C79.53 0 159.06 0 241 0 C241 8.58 241 17.16 241 26 C264.1 26 287.2 26 311 26 C311 34.58 311 43.16 311 52 C331.46 52 351.92 52 373 52 C373 52.33 373 52.66 373 53 C352.54 53 332.08 53 311 53 C311 61.25 311 69.5 311 78 C312.90136719 77.98839844 314.80273438 77.97679688 316.76171875 77.96484375 C334.87480632 77.89022273 352.89645066 78.27946072 371 79 C371 87.58 371 96.16 371 105 C351.2 105 331.4 105 311 105 C311 113.91 311 122.82 311 132 C310.67 132 310.34 132 310 132 C310 123.09 310 114.18 310 105 C287.23 105 264.46 105 241 105 C240.35834594 87.67534025 240 70.33653817 240 53 C161.13 53 82.26 53 1 53 C1 60.92 1 68.84 1 77 C0.67 77 0.34 77 0 77 C0 60.5 0 44 0 27 C79.2 27 158.4 27 240 27 C240 18.42 240 9.84 240 1 C160.8 1 81.6 1 0 1 C0 0.67 0 0.34 0 0 Z " fill="#016AC4" transform="translate(288,38)"/>
<path d="M0 0 C1.084021 0.00523682 2.16804199 0.01047363 3.28491211 0.01586914 C4.45473633 0.0190918 5.62456055 0.02231445 6.82983398 0.02563477 C8.0615332 0.03401367 9.29323242 0.04239258 10.56225586 0.05102539 C12.41560547 0.05779297 12.41560547 0.05779297 14.30639648 0.06469727 C17.37089703 0.07652931 20.43530307 0.09301366 23.49975586 0.11352539 C24.42724397 40.07379893 24.61218618 80.03153808 24.62313843 120.00151825 C24.62472961 123.80083998 24.62827027 127.60015527 24.63232422 131.3994751 C24.66473812 165.64922418 24.298719 199.87294619 23.49975586 234.11352539 C-1.65713207 235.21081933 -26.81659414 235.41967809 -51.99346924 235.64575195 C-57.59275837 235.69682025 -63.19200647 235.7520516 -68.79125977 235.80688477 C-79.69421918 235.91306725 -90.59721486 236.01479674 -101.50024414 236.11352539 C-102.16154214 231.67687354 -102.62115086 227.44852243 -102.59790039 222.96118164 C-102.59467773 221.85581055 -102.59145508 220.75043945 -102.58813477 219.61157227 C-102.57975586 218.4778418 -102.57137695 217.34411133 -102.56274414 216.17602539 C-102.55823242 215.01522461 -102.5537207 213.85442383 -102.54907227 212.65844727 C-102.53735074 209.81011759 -102.51941737 206.96181465 -102.50024414 204.11352539 C-95.57024414 204.11352539 -88.64024414 204.11352539 -81.50024414 204.11352539 C-81.50024414 197.51352539 -81.50024414 190.91352539 -81.50024414 184.11352539 C-64.01024414 184.11352539 -46.52024414 184.11352539 -28.50024414 184.11352539 C-28.17024414 175.86352539 -27.84024414 167.61352539 -27.50024414 159.11352539 C-19.91024414 159.11352539 -12.32024414 159.11352539 -4.50024414 159.11352539 C-4.57243164 157.36555664 -4.64461914 155.61758789 -4.71899414 153.81665039 C-5.50080097 133.57328856 -5.60465708 113.36963637 -5.50024414 93.11352539 C-11.44024414 93.11352539 -17.38024414 93.11352539 -23.50024414 93.11352539 C-23.50024414 85.19352539 -23.50024414 77.27352539 -23.50024414 69.11352539 C-16.90024414 69.11352539 -10.30024414 69.11352539 -3.50024414 69.11352539 C-3.50548096 67.05884033 -3.51071777 65.00415527 -3.51611328 62.88720703 C-3.53265086 56.1138234 -3.54371604 49.34043889 -3.55205631 42.56704044 C-3.5572846 38.45858254 -3.56438127 34.35014525 -3.57568359 30.24169922 C-3.58651439 26.28005711 -3.59252138 22.31843487 -3.59512138 18.3567791 C-3.59697529 16.84204228 -3.60059524 15.3273066 -3.6059742 13.8125782 C-3.61318721 11.69810726 -3.61423498 9.58371945 -3.61376953 7.46923828 C-3.61599014 6.2634462 -3.61821075 5.05765411 -3.62049866 3.81532288 C-3.45766999 0.156998 -3.45766999 0.156998 0 0 Z " fill="#00244F" transform="translate(666.500244140625,195.886474609375)"/>
<path d="M0 0 C9.24 0 18.48 0 28 0 C28 8.91 28 17.82 28 27 C35.92 27 43.84 27 52 27 C52 34.92 52 42.84 52 51 C129.22 51 206.44 51 286 51 C286 42.75 286 34.5 286 26 C294.58 26 303.16 26 312 26 C312 17.42 312 8.84 312 0 C321.57 0 331.14 0 341 0 C341 16.5 341 33 341 50 C331.76 50 322.52 50 313 50 C313 59.24 313 68.48 313 78 C218.62 78 124.24 78 27 78 C27 68.76 27 59.52 27 50 C18.09 50 9.18 50 0 50 C0 33.5 0 17 0 0 Z " fill="#00234C" transform="translate(236,683)"/>
<path d="M0 0 C8.91 0 17.82 0 27 0 C27 7.59 27 15.18 27 23 C34.92 23 42.84 23 51 23 C51 66.56 51 110.12 51 155 C60.9 155 70.8 155 81 155 C81 179.75 81 204.5 81 230 C71.1 230 61.2 230 51 230 C51 221.09 51 212.18 51 203 C43.08 203 35.16 203 27 203 C27 177.26 27 151.52 27 125 C18.09 125 9.18 125 0 125 C0 83.75 0 42.5 0 0 Z " fill="#5BCAFE" transform="translate(262,480)"/>
<path d="M0 0 C79.2 0 158.4 0 240 0 C240 8.58 240 17.16 240 26 C160.8 26 81.6 26 0 26 C0 34.25 0 42.5 0 51 C-22.11 51 -44.22 51 -67 51 C-67 42.42 -67 33.84 -67 25 C-44.89 25 -22.78 25 0 25 C0 16.75 0 8.5 0 0 Z " fill="#02234B" transform="translate(288,39)"/>
<path d="M0 0 C9.57 0 19.14 0 29 0 C29 34.65 29 69.3 29 105 C38.57 105 48.14 105 58 105 C57.67 70.35 57.34 35.7 57 0 C66.9 0 76.8 0 87 0 C87 43.23 87 86.46 87 131 C77.43 131 67.86 131 58 131 C58 148.16 58 165.32 58 183 C48.1 183 38.2 183 28 183 C27.82855856 164.66670873 27.66159173 146.33338061 27.5 128 C27.49405146 127.32586783 27.48810292 126.65173567 27.48197412 125.95717525 C27.18717985 92.51346618 26.89406449 59.07034519 26.9375 25.625 C26.93835602 24.96070984 26.93921204 24.29641968 26.94009399 23.61199951 C26.9506027 16.0746023 26.97310217 8.53736874 27 1 C13.635 1.495 13.635 1.495 0 2 C0 1.34 0 0.68 0 0 Z " fill="#01224C" transform="translate(663,195)"/>
<path d="M0 0 C9.57 0 19.14 0 29 0 C29.33 23.76 29.66 47.52 30 72 C42.87 72.495 42.87 72.495 56 73 C56 71.35 56 69.7 56 68 C64.25 68 72.5 68 81 68 C81 62.06 81 56.12 81 50 C89.25 50 97.5 50 106 50 C106 72.11 106 94.22 106 117 C97.42 117 88.84 117 80 117 C80 109.41 80 101.82 80 94 C71.75 94 63.5 94 55 94 C55 97.3 55 100.6 55 104 C36.62828089 104.96602467 18.43323169 105 0 105 C0 70.35 0 35.7 0 0 Z " fill="#00224D" transform="translate(128,195)"/>
<path d="M0 0 C9.57 0 19.14 0 29 0 C29.33 34.65 29.66 69.3 30 105 C39.57 105 49.14 105 59 105 C59 130.74 59 156.48 59 183 C49.43 183 39.86 183 30 183 C30 165.51 30 148.02 30 130 C20.1 130 10.2 130 0 130 C0 87.1 0 44.2 0 0 Z " fill="#01224A" transform="translate(69,195)"/>
<path d="M0 0 C78.87 0 157.74 0 239 0 C239 8.25 239 16.5 239 25 C160.13 25 81.26 25 0 25 C0 16.75 0 8.5 0 0 Z " fill="#01224B" transform="translate(289,91)"/>
<path d="M0 0 C79.53 0 159.06 0 241 0 C241 8.58 241 17.16 241 26 C264.1 26 287.2 26 311 26 C311 34.58 311 43.16 311 52 C331.46 52 351.92 52 373 52 C373 52.33 373 52.66 373 53 C352.54 53 332.08 53 311 53 C311 61.25 311 69.5 311 78 C312.90136719 77.98839844 314.80273438 77.97679688 316.76171875 77.96484375 C334.87480632 77.89022273 352.89645066 78.27946072 371 79 C371 87.58 371 96.16 371 105 C351.2 105 331.4 105 311 105 C311 113.91 311 122.82 311 132 C310.67 132 310.34 132 310 132 C310 123.09 310 114.18 310 105 C287.23 105 264.46 105 241 105 C239.83600363 73.57209794 239.83600363 73.57209794 239.875 63.875 C239.87113281 62.8128125 239.86726562 61.750625 239.86328125 60.65625 C239.8729589 53.1270411 239.8729589 53.1270411 241 52 C243.14743549 51.90574405 245.29801026 51.88257352 247.44750977 51.88647461 C248.12065216 51.88632858 248.79379456 51.88618256 249.48733521 51.8860321 C251.72205784 51.88673122 253.9566981 51.89452348 256.19140625 51.90234375 C257.73697362 51.90420794 259.28254157 51.90563184 260.82810974 51.90663147 C264.90357077 51.9104566 268.97899637 51.92028683 273.05444336 51.93133545 C277.21011882 51.94154968 281.36579999 51.94612911 285.52148438 51.95117188 C293.68100768 51.96190911 301.84049536 51.97950586 310 52 C310 43.75 310 35.5 310 27 C286.9 27 263.8 27 240 27 C240 18.42 240 9.84 240 1 C160.8 1 81.6 1 0 1 C0 0.67 0 0.34 0 0 Z " fill="#3DA2E5" transform="translate(288,38)"/>
<path d="M0 0 C9.24 0 18.48 0 28 0 C28 8.25 28 16.5 28 25 C38.23 25 48.46 25 59 25 C59 33.25 59 41.5 59 50 C77.15 50 95.3 50 114 50 C114 56.6 114 63.2 114 70 C105.75738058 70.13215747 97.51474154 70.26284836 89.27206135 70.39115143 C85.44218346 70.45082071 81.61231662 70.51106414 77.7824707 70.57275391 C60.85341302 70.84502913 43.93199783 71.06332678 27 71 C27 64.4 27 57.8 27 51 C18.09 51 9.18 51 0 51 C0 57.93 0 64.86 0 72 C-10.23 72 -20.46 72 -31 72 C-31 56.82 -31 41.64 -31 26 C-20.77 26 -10.54 26 0 26 C0 17.42 0 8.84 0 0 Z " fill="#6C4027" transform="translate(419,193)"/>
<path d="M0 0 C9.57 0 19.14 0 29 0 C29 8.91 29 17.82 29 27 C38.9 27 48.8 27 59 27 C59 18.09 59 9.18 59 0 C68.9 0 78.8 0 89 0 C89 8.91 89 17.82 89 27 C98.9 27 108.8 27 119 27 C119.11374548 43.03811257 118.65751023 58.97318811 118 75 C107.77 75 97.54 75 87 75 C87 66.75 87 58.5 87 50 C77.76 50 68.52 50 59 50 C59 58.58 59 67.16 59 76 C48.77 76 38.54 76 28 76 C28 59.83 28 43.66 28 27 C9.85 27 -8.3 27 -27 27 C-27 26.67 -27 26.34 -27 26 C-18.09 26 -9.18 26 0 26 C0 17.42 0 8.84 0 0 Z " fill="#362219" transform="translate(360,143)"/>
<path d="M0 0 C20.46 0 40.92 0 62 0 C62 8.58 62 17.16 62 26 C71.9 26 81.8 26 92 26 C92 34.58 92 43.16 92 52 C82.43 52 72.86 52 63 52 C63 69.16 63 86.32 63 104 C53.43 104 43.86 104 34 104 C34 95.75 34 87.5 34 79 C22.78 79 11.56 79 0 79 C0 70.09 0 61.18 0 52 C19.8 52 39.6 52 60 52 C60 43.42 60 34.84 60 26 C55.854375 26.020625 51.70875 26.04125 47.4375 26.0625 C31.60870779 26.10010026 15.8157858 25.60046373 0 25 C0 16.75 0 8.5 0 0 Z " fill="#01234C" transform="translate(599,91)"/>
<path d="M0 0 C9.24 0 18.48 0 28 0 C28 9.24 28 18.48 28 28 C37.24 28 46.48 28 56 28 C56 35.92 56 43.84 56 52 C63.92 52 71.84 52 80 52 C80 60.58 80 69.16 80 78 C85.61 78 91.22 78 97 78 C97 84.93 97 91.86 97 99 C105.25 99 113.5 99 122 99 C122 100.98 122 102.96 122 105 C100.22 105 78.44 105 56 105 C56 96.09 56 87.18 56 78 C47.09 78 38.18 78 29 78 C29 69.42 29 60.84 29 52 C19.43 52 9.86 52 0 52 C0 34.84 0 17.68 0 0 Z " fill="#47C0FD" transform="translate(128,326)"/>
<path d="M0 0 C9.24 0 18.48 0 28 0 C28 51.15 28 102.3 28 155 C18.76 155 9.52 155 0 155 C0 103.85 0 52.7 0 0 Z " fill="#1181D8" transform="translate(208,527)"/>
<path d="M0 0 C0.33 0 0.66 0 1 0 C1 8.25 1 16.5 1 25 C10.9 25 20.8 25 31 25 C31 36.22 31 47.44 31 59 C24.4 59 17.8 59 11 59 C11 67.58 11 76.16 11 85 C3.41 85 -4.18 85 -12 85 C-12 91.93 -12 98.86 -12 106 C-24.87 106 -37.74 106 -51 106 C-51 90.49 -51 74.98 -51 59 C-46.71 59 -42.42 59 -38 59 C-38 52.4 -38 45.8 -38 39 C-25.46 39 -12.92 39 0 39 C0 26.13 0 13.26 0 0 Z " fill="#CF8154" transform="translate(532,341)"/>
<path d="M0 0 C7.59 0.33 15.18 0.66 23 1 C23 8.92 23 16.84 23 25 C31.58 25 40.16 25 49 25 C49 33.25 49 41.5 49 50 C56.59 50 64.18 50 72 50 C72 64.19 72 78.38 72 93 C116.22 93 160.44 93 206 93 C206 85.41 206 77.82 206 70 C206.33 70 206.66 70 207 70 C207 77.92 207 85.84 207 94 C154.2 94 101.4 94 47 94 C47 86.08 47 78.16 47 70 C39.41 70 31.82 70 24 70 C24 63.4 24 56.8 24 50 C7.5 50 -9 50 -26 50 C-26 41.75 -26 33.5 -26 25 C-17.42 25 -8.84 25 0 25 C0 16.75 0 8.5 0 0 Z " fill="#321E16" transform="translate(260,194)"/>
<path d="M0 0 C7.92 0 15.84 0 24 0 C24 17.16 24 34.32 24 52 C15.75 52 7.5 52 -1 52 C-1 56.29 -1 60.58 -1 65 C10.88 65 22.76 65 35 65 C35 73.91 35 82.82 35 92 C28.73 92 22.46 92 16 92 C16 98.6 16 105.2 16 112 C7.75 112 -0.5 112 -9 112 C-9 105.07 -9 98.14 -9 91 C-14.61 91 -20.22 91 -26 91 C-26 72.85 -26 54.7 -26 36 C-17.42 36 -8.84 36 0 36 C0 24.12 0 12.24 0 0 Z " fill="#081E37" transform="translate(234,313)"/>
<path d="M0 0 C8.91 0 17.82 0 27 0 C27 17.49 27 34.98 27 53 C17.76 53 8.52 53 -1 53 C-1 61.91 -1 70.82 -1 80 C-49.015 80.495 -49.015 80.495 -98 81 C-98 78.69 -98 76.38 -98 74 C-91.07 74 -84.14 74 -77 74 C-77 67.4 -77 60.8 -77 54 C-59.51 54 -42.02 54 -24 54 C-23.67 45.75 -23.34 37.5 -23 29 C-15.41 29 -7.82 29 0 29 C0 19.43 0 9.86 0 0 Z " fill="#046ABD" transform="translate(662,326)"/>
<path d="M0 0 C9.9 0 19.8 0 30 0 C30 34.65 30 69.3 30 105 C20.43 105 10.86 105 1 105 C0.36621455 101.19728732 -0.12498375 98.23722653 -0.12025452 94.52005005 C-0.12162918 93.67880081 -0.12300385 92.83755157 -0.12442017 91.97080994 C-0.12082489 91.06665848 -0.11722961 90.16250702 -0.11352539 89.23095703 C-0.11367142 88.26447739 -0.11381744 87.29799774 -0.1139679 86.30223083 C-0.11327351 83.1207349 -0.10550333 79.93929816 -0.09765625 76.7578125 C-0.09579039 74.54678377 -0.09436728 72.33575463 -0.09336853 70.12472534 C-0.08955662 64.31492973 -0.07973765 58.50515924 -0.06866455 52.69537354 C-0.05842192 46.76306498 -0.0538648 40.83075235 -0.04882812 34.8984375 C-0.03811419 23.2656122 -0.02052812 11.63281213 0 0 Z " fill="#016CC8" transform="translate(98,195)"/>
<path d="M0 0 C9.24 0 18.48 0 28 0 C29 1 29 1 29.12304783 2.74725437 C29.12166514 3.89626933 29.12166514 3.89626933 29.12025452 5.0684967 C29.12162918 5.94494339 29.12300385 6.82139008 29.12442017 7.72439575 C29.12082489 8.69327728 29.11722961 9.66215881 29.11352539 10.66040039 C29.11367142 11.67491776 29.11381744 12.68943512 29.1139679 13.73469543 C29.11326829 17.10570373 29.10547368 20.47665754 29.09765625 23.84765625 C29.09579224 26.17793243 29.09436826 28.508209 29.09336853 30.83848572 C29.08954202 36.98537265 29.0797106 43.13223613 29.06866455 49.27911377 C29.05845329 55.54609866 29.05387152 61.81308732 29.04882812 68.08007812 C29.03808845 80.38673074 29.02049058 92.69335975 29 105 C19.43 105 9.86 105 0 105 C0 70.35 0 35.7 0 0 Z " fill="#016CC8" transform="translate(692,195)"/>
<path d="M0 0 C24.75 0 49.5 0 75 0 C75 6.6 75 13.2 75 20 C82.59 20 90.18 20 98 20 C98 27.92 98 35.84 98 44 C150.8 44 203.6 44 258 44 C258 44.33 258 44.66 258 45 C204.87 45 151.74 45 97 45 C97 37.08 97 29.16 97 21 C89.41 21 81.82 21 74 21 C74 28.92 74 36.84 74 45 C65.75 45 57.5 45 49 45 C49 52.92 49 60.84 49 69 C41.08 69 33.16 69 25 69 C25 46.56 25 24.12 25 1 C16.75 1 8.5 1 0 1 C0 0.67 0 0.34 0 0 Z " fill="#C56F4B" transform="translate(209,244)"/>
<path d="M0 0 C0.33 0 0.66 0 1 0 C1 16.17 1 32.34 1 49 C9.25 49 17.5 49 26 49 C26 33.49 26 17.98 26 2 C42.5 2 59 2 76 2 C76 9.59 76 17.18 76 25 C66.76 25 57.52 25 48 25 C48 41.5 48 58 48 75 C32.16 75.33 16.32 75.66 0 76 C0 50.92 0 25.84 0 0 Z " fill="#6D4128" transform="translate(533,264)"/>
<path d="M0 0 C9.24 0 18.48 0 28 0 C28 33.66 28 67.32 28 102 C18.76 102 9.52 102 0 102 C0 68.34 0 34.68 0 0 Z " fill="#01224A" transform="translate(605,503)"/>
<path d="M0 0 C7.59 0 15.18 0 23 0 C23 11.22 23 22.44 23 34 C15.74 34 8.48 34 1 34 C1 41.26 1 48.52 1 56 C-22.1 56 -45.2 56 -69 56 C-69 48.74 -69 41.48 -69 34 C-53.82 34 -38.64 34 -23 34 C-23 29.38 -23 24.76 -23 20 C-15.41 20 -7.82 20 0 20 C0 13.4 0 6.8 0 0 Z " fill="#CE8054" transform="translate(343,391)"/>
<path d="M0 0 C25.41 0 50.82 0 77 0 C77 7.59 77 15.18 77 23 C68.42 23 59.84 23 51 23 C51 32.57 51 42.14 51 52 C43.08 52 35.16 52 27 52 C27 44.08 27 36.16 27 28 C18.09 28 9.18 28 0 28 C0 18.76 0 9.52 0 0 Z " fill="#00438B" transform="translate(157,326)"/>
<path d="M0 0 C0.33 0 0.66 0 1 0 C1.02526739 7.24486551 1.0428318 14.48971974 1.05493164 21.73461914 C1.05997356 24.20142033 1.06680691 26.66821852 1.07543945 29.13500977 C1.08751125 32.67204529 1.09322956 36.20904145 1.09765625 39.74609375 C1.10281754 40.85649521 1.10797882 41.96689667 1.11329651 43.11094666 C1.11337204 44.13192947 1.11344757 45.15291229 1.11352539 46.20483398 C1.115746 47.10862289 1.11796661 48.0124118 1.12025452 48.94358826 C1 51 1 51 0 52 C-2.98223174 52.12533087 -5.94241634 52.18611578 -8.92602539 52.20532227 C-10.33075859 52.22017166 -10.33075859 52.22017166 -11.76387024 52.23532104 C-14.87510608 52.26703753 -17.98635722 52.29173341 -21.09765625 52.31640625 C-23.24857492 52.33696703 -25.39948946 52.35796325 -27.55039978 52.37937927 C-33.22377189 52.4346905 -38.89718101 52.48405972 -44.57061768 52.53222656 C-50.35505484 52.58237567 -56.13943796 52.63809606 -61.92382812 52.69335938 C-73.28250598 52.80105158 -84.64123065 52.90247182 -96 53 C-96.57469439 49.09754703 -97.12647111 45.32654151 -97.09765625 41.37890625 C-97.09443359 40.58935547 -97.09121094 39.79980469 -97.08789062 38.98632812 C-97.07951172 38.18646484 -97.07113281 37.38660156 -97.0625 36.5625 C-97.05798828 35.73556641 -97.05347656 34.90863281 -97.04882812 34.05664062 C-97.03715811 32.03772854 -97.01922718 30.01885426 -97 28 C-93.61664344 26.30832172 -89.7731199 26.87129232 -86.05224609 26.88647461 C-85.12536484 26.88632858 -84.19848358 26.88618256 -83.24351501 26.8860321 C-80.1701323 26.88673054 -77.09680967 26.89451973 -74.0234375 26.90234375 C-71.89637281 26.90420818 -69.7693077 26.90563196 -67.64224243 26.90663147 C-62.03624288 26.91045472 -56.43026912 26.92028338 -50.82427979 26.93133545 C-45.10681507 26.9415537 -39.38934621 26.94612998 -33.671875 26.95117188 C-22.44790349 26.9619058 -11.22395792 26.97950106 0 27 C0 18.09 0 9.18 0 0 Z " fill="#00458E" transform="translate(661,379)"/>
<path d="M0 0 C1.49544594 0.00212242 1.49544594 0.00212242 3.02110291 0.00428772 C6.12738377 0.00977328 9.23358562 0.02230143 12.33984375 0.03515625 C14.47851457 0.04018613 16.61718654 0.04474638 18.75585938 0.04882812 C23.92974056 0.05884338 29.10345639 0.07843834 34.27734375 0.09765625 C34.27734375 9.00765625 34.27734375 17.91765625 34.27734375 27.09765625 C23.05734375 27.09765625 11.83734375 27.09765625 0.27734375 27.09765625 C0.27734375 35.34765625 0.27734375 43.59765625 0.27734375 52.09765625 C-9.29265625 52.09765625 -18.86265625 52.09765625 -28.72265625 52.09765625 C-28.72265625 35.26765625 -28.72265625 18.43765625 -28.72265625 1.09765625 C-9.18503252 -0.05161573 -9.18503252 -0.05161573 0 0 Z " fill="#00224C" transform="translate(186.72265625,142.90234375)"/>
<path d="M0 0 C9.24 0 18.48 0 28 0 C28 25.41 28 50.82 28 77 C18.76 77 9.52 77 0 77 C0 51.59 0 26.18 0 0 Z " fill="#01224D" transform="translate(577,605)"/>
<path d="M0 0 C9.24 0 18.48 0 28 0 C28 25.41 28 50.82 28 77 C18.76 77 9.52 77 0 77 C0 51.59 0 26.18 0 0 Z " fill="#00244F" transform="translate(208,605)"/>
<path d="M0 0 C24.09 0 48.18 0 73 0 C73 23.76 73 47.52 73 72 C63.76 72 54.52 72 45 72 C44.83193931 65.58525277 44.66899482 59.17073396 44.51782227 52.75561523 C44.46526923 50.58464758 44.41003811 48.41374269 44.35180664 46.24291992 C43.94788007 31.09391741 44.19455283 16.13644043 45 1 C30.15 1 15.3 1 0 1 C0 0.67 0 0.34 0 0 Z " fill="#012249" transform="translate(588,431)"/>
<path d="M0 0 C7.92 0 15.84 0 24 0 C24 17.16 24 34.32 24 52 C15.42 52 6.84 52 -2 52 C-2 56.29 -2 60.58 -2 65 C-9.92 65 -17.84 65 -26 65 C-26 55.43 -26 45.86 -26 36 C-17.42 36 -8.84 36 0 36 C0 24.12 0 12.24 0 0 Z " fill="#351F16" transform="translate(234,313)"/>
<path d="M0 0 C30.69 0 61.38 0 93 0 C93 6.93 93 13.86 93 21 C62.31 21 31.62 21 0 21 C0 14.07 0 7.14 0 0 Z " fill="#1283D9" transform="translate(367,426)"/>
<path d="M0 0 C8.58 0 17.16 0 26 0 C26 8.25 26 16.5 26 25 C33.26 25 40.52 25 48 25 C48 25.33 48 25.66 48 26 C40.74 26 33.48 26 26 26 C26 33.92 26 41.84 26 50 C33.26 50 40.52 50 48 50 C48 58.25 48 66.5 48 75 C40.41 75 32.82 75 25 75 C25 66.75 25 58.5 25 50 C16.42 50 7.84 50 -1 50 C-1 42.08 -1 34.16 -1 26 C-8.26 26 -15.52 26 -23 26 C-23 25.67 -23 25.34 -23 25 C-15.41 25 -7.82 25 0 25 C0 16.75 0 8.5 0 0 Z " fill="#613E2A" transform="translate(284,169)"/>
<path d="M0 0 C22.77 0 45.54 0 69 0 C69 8.58 69 17.16 69 26 C46.23 26 23.46 26 0 26 C0 17.42 0 8.84 0 0 Z " fill="#002551" transform="translate(529,117)"/>
<path d="M0 0 C8.25 0 16.5 0 25 0 C25 22.11 25 44.22 25 67 C16.42 67 7.84 67 -1 67 C-1 51.49 -1 35.98 -1 20 C-8.92 19.67 -16.84 19.34 -25 19 C-25 18.67 -25 18.34 -25 18 C-16.75 18 -8.5 18 0 18 C0 12.06 0 6.12 0 0 Z " fill="#341F17" transform="translate(209,245)"/>
<path d="M0 0 C22.77 0 45.54 0 69 0 C69 8.25 69 16.5 69 25 C46.23 25 23.46 25 0 25 C0 16.75 0 8.5 0 0 Z " fill="#01224A" transform="translate(529,65)"/>
<path d="M0 0 C20.79 0 41.58 0 63 0 C63 8.91 63 17.82 63 27 C42.21 27 21.42 27 0 27 C0 18.09 0 9.18 0 0 Z " fill="#27A4F4" transform="translate(158,116)"/>
<path d="M0 0 C21.78 0 43.56 0 66 0 C66 8.25 66 16.5 66 25 C44.22 25 22.44 25 0 25 C0 16.75 0 8.5 0 0 Z " fill="#00214A" transform="translate(222,117)"/>
<path d="M0 0 C20.79 0 41.58 0 63 0 C63 8.25 63 16.5 63 25 C42.21 25 21.42 25 0 25 C0 16.75 0 8.5 0 0 Z " fill="#022248" transform="translate(158,91)"/>
<path d="M0 0 C19.8 0 39.6 0 60 0 C60 8.58 60 17.16 60 26 C40.2 26 20.4 26 0 26 C0 17.42 0 8.84 0 0 Z " fill="#26A4F4" transform="translate(599,117)"/>
<path d="M0 0 C9.57 0 19.14 0 29 0 C29 16.83 29 33.66 29 51 C19.43 51 9.86 51 0 51 C0 34.17 0 17.34 0 0 Z " fill="#012149" transform="translate(99,144)"/>
<path d="M0 0 C79.53 0 159.06 0 241 0 C241 8.58 241 17.16 241 26 C205.36 26 169.72 26 133 26 C133 25.67 133 25.34 133 25 C158.74 25 184.48 25 211 25 C211 17.74 211 10.48 211 3 C208.93177475 3.00222061 206.8635495 3.00444122 204.73265076 3.00672913 C185.06931252 3.02734235 165.40597574 3.04212744 145.74262905 3.05181217 C135.6379039 3.05692349 125.53318678 3.06386499 115.4284668 3.07543945 C106.60001766 3.08554701 97.77157435 3.09189072 88.94311959 3.09408849 C84.28779601 3.09536896 79.63248907 3.09827858 74.97717094 3.10573006 C49.96859708 3.14423163 24.99696319 2.77189272 0 2 C0 1.34 0 0.68 0 0 Z " fill="#004B96" transform="translate(288,65)"/>
<path d="M0 0 C0 17.16 0 34.32 0 52 C-9.24 52 -18.48 52 -28 52 C-28 35.17 -28 18.34 -28 1 C-21.3484375 0.7525 -21.3484375 0.7525 -14.5625 0.5 C-13.16201416 0.44779297 -11.76152832 0.39558594 -10.31860352 0.34179688 C-8.67782837 0.28088867 -8.67782837 0.28088867 -7.00390625 0.21875 C-5.87799072 0.17685547 -4.7520752 0.13496094 -3.59204102 0.09179688 C-1 0 -1 0 0 0 Z " fill="#012148" transform="translate(690,378)"/>
<path d="M0 0 C9.24 0 18.48 0 28 0 C28 16.83 28 33.66 28 51 C18.76 51 9.52 51 0 51 C0 34.17 0 17.34 0 0 Z " fill="#0062B3" transform="translate(447,658)"/>
<path d="M0 0 C8.91 0 17.82 0 27 0 C27 17.16 27 34.32 27 52 C18.09 52 9.18 52 0 52 C0 34.84 0 17.68 0 0 Z " fill="#1D94E9" transform="translate(662,326)"/>
<path d="M0 0 C9.24 0 18.48 0 28 0 C28 16.5 28 33 28 50 C18.76 50 9.52 50 0 50 C0 33.5 0 17 0 0 Z " fill="#002149" transform="translate(692,144)"/>
<path d="M0 0 C9.24 0 18.48 0 28 0 C28 16.17 28 32.34 28 49 C18.76 49 9.52 49 0 49 C0 32.83 0 16.66 0 0 Z " fill="#6D4028" transform="translate(360,170)"/>
<path d="M0 0 C9.24 0 18.48 0 28 0 C28 15.84 28 31.68 28 48 C18.43 48 8.86 48 -1 48 C-1.08237939 31.93601892 -0.90981536 16.03549564 0 0 Z " fill="#6C4027" transform="translate(479,170)"/>
<path d="M0 0 C0.33 0 0.66 0 1 0 C1 7.92 1 15.84 1 24 C6.61 24 12.22 24 18 24 C18 30.93 18 37.86 18 45 C26.25 45 34.5 45 43 45 C43 46.98 43 48.96 43 51 C21.22 51 -0.56 51 -23 51 C-23 42.09 -23 33.18 -23 24 C-15.41 24 -7.82 24 0 24 C0 16.08 0 8.16 0 0 Z " fill="#1B91E8" transform="translate(207,380)"/>
<path d="M0 0 C33.99 0 67.98 0 103 0 C103 0.33 103 0.66 103 1 C76.6 1 50.2 1 23 1 C23 16.18 23 31.36 23 47 C15.41 47 7.82 47 0 47 C0 31.49 0 15.98 0 0 Z " fill="#1080D6" transform="translate(185,456)"/>
<path d="M0 0 C8.91 0 17.82 0 27 0 C27 14.19 27 28.38 27 43 C18.09 43 9.18 43 0 43 C0 28.81 0 14.62 0 0 Z " fill="#6D4028" transform="translate(332,244)"/>
<path d="M0 0 C7.92 0 15.84 0 24 0 C24 16.5 24 33 24 50 C16.41 50 8.82 50 1 50 C0.67 33.5 0.34 17 0 0 Z " fill="#005CAC" transform="translate(475,555)"/>
<path d="M0 0 C6.93 0 13.86 0 21 0 C21 15.51 21 31.02 21 47 C14.07 47 7.14 47 0 47 C0 31.49 0 15.98 0 0 Z " fill="#311C15" transform="translate(460,400)"/>
<path d="M0 0 C11.22 0 22.44 0 34 0 C34 9.24 34 18.48 34 28 C22.45 28 10.9 28 -1 28 C-0.67 18.76 -0.34 9.52 0 0 Z " fill="#C76643" transform="translate(477,284)"/>
<path d="M0 0 C15.84 0 31.68 0 48 0 C48 6.27 48 12.54 48 19 C32.16 19 16.32 19 0 19 C0 12.73 0 6.46 0 0 Z " fill="#FCDC99" transform="translate(235,245)"/>
<path d="M0 0 C9.9 0 19.8 0 30 0 C30 25.74 30 51.48 30 78 C29.34 78 28.68 78 28 78 C28 60.84 28 43.68 28 26 C19.15927137 26.03959401 19.15927137 26.03959401 10.31860352 26.09008789 C9.22475342 26.09258545 8.13090332 26.09508301 7.00390625 26.09765625 C5.87799072 26.10289307 4.7520752 26.10812988 3.59204102 26.11352539 C1 26 1 26 0 25 C-0.08737645 23.14630389 -0.10698153 21.28932459 -0.09765625 19.43359375 C-0.09515869 18.42095459 -0.09266113 17.40831543 -0.09008789 16.36499023 C-0.08098389 15.06891846 -0.07187988 13.77284668 -0.0625 12.4375 C-0.041875 8.333125 -0.02125 4.22875 0 0 Z " fill="#00458F" transform="translate(661,300)"/>
<path d="M0 0 C9.57 0 19.14 0 29 0 C29 9.9 29 19.8 29 30 C19.76 30 10.52 30 1 30 C0.67 20.1 0.34 10.2 0 0 Z " fill="#051935" transform="translate(388,329)"/>
<path d="M0 0 C9.57 0 19.14 0 29 0 C29 9.57 29 19.14 29 29 C19.43 28.67 9.86 28.34 0 28 C0 18.76 0 9.52 0 0 Z " fill="#25A3F2" transform="translate(662,143)"/>
<path d="M0 0 C0 10.23 0 20.46 0 31 C-8.91 31 -17.82 31 -27 31 C-27 21.1 -27 11.2 -27 1 C-22.91625 0.835 -18.8325 0.67 -14.625 0.5 C-12.69454834 0.42168945 -12.69454834 0.42168945 -10.72509766 0.34179688 C-9.71495605 0.30119141 -8.70481445 0.26058594 -7.6640625 0.21875 C-6.62717285 0.17685547 -5.5902832 0.13496094 -4.52197266 0.09179688 C-3.01533561 0.03695704 -1.50763477 0 0 0 Z " fill="#091B33" transform="translate(302,327)"/>
<path d="M0 0 C9.9 0 19.8 0 30 0 C30 31.35 30 62.7 30 95 C29.67 95 29.34 95 29 95 C29 71.24 29 47.48 29 23 C19.43 23 9.86 23 0 23 C0 15.41 0 7.82 0 0 Z " fill="#094B8F" transform="translate(128,172)"/>
<path d="M0 0 C8.91 0 17.82 0 27 0 C27 9.24 27 18.48 27 28 C18.09 28 9.18 28 0 28 C0 18.76 0 9.52 0 0 Z " fill="#002046" transform="translate(157,326)"/>
<path d="M0 0 C9.57 0 19.14 0 29 0 C29 8.58 29 17.16 29 26 C19.43 26 9.86 26 0 26 C0 17.42 0 8.84 0 0 Z " fill="#032148" transform="translate(128,117)"/>
<path d="M0 0 C14.85 0 29.7 0 45 0 C45 0.33 45 0.66 45 1 C37.74 1 30.48 1 23 1 C23 8.92 23 16.84 23 25 C30.26 25 37.52 25 45 25 C45 33.25 45 41.5 45 50 C37.41 50 29.82 50 22 50 C22 41.75 22 33.5 22 25 C13.42 25 4.84 25 -4 25 C-4 24.34 -4 23.68 -4 23 C4.25 23 12.5 23 21 23 C20.67 16.07 20.34 9.14 20 2 C13.4 2 6.8 2 0 2 C0 1.34 0 0.68 0 0 Z " fill="#6D4229" transform="translate(287,194)"/>
<path d="M0 0 C8.58 0 17.16 0 26 0 C26 7.59 26 15.18 26 23 C25.67 23 25.34 23 25 23 C25 15.74 25 8.48 25 1 C17.08 1 9.16 1 1 1 C1 7.93 1 14.86 1 22 C8.26 22 15.52 22 23 22 C23 30.25 23 38.5 23 47 C14.75 47 6.5 47 -2 47 C-2 39.74 -2 32.48 -2 25 C-9.26 25 -16.52 25 -24 25 C-24 24.67 -24 24.34 -24 24 C-16.41 23.67 -8.82 23.34 -1 23 C-0.67 15.41 -0.34 7.82 0 0 Z " fill="#663E28" transform="translate(558,196)"/>
<path d="M0 0 C8.58 0 17.16 0 26 0 C26 8.91 26 17.82 26 27 C17.42 27 8.84 27 0 27 C0 18.09 0 9.18 0 0 Z " fill="#6B3F27" transform="translate(608,313)"/>
<path d="M0 0 C1.27617188 0.00483398 1.27617188 0.00483398 2.578125 0.00976562 C3.46757813 0.01814453 4.35703125 0.02652344 5.2734375 0.03515625 C6.170625 0.03966797 7.0678125 0.04417969 7.9921875 0.04882812 C10.21100398 0.06063034 12.42968768 0.0770947 14.6484375 0.09765625 C14.76713047 11.49218117 14.47514031 22.73049267 13.6484375 34.09765625 C7.0484375 34.09765625 0.4484375 34.09765625 -6.3515625 34.09765625 C-6.3515625 23.20765625 -6.3515625 12.31765625 -6.3515625 1.09765625 C-4.00303722 -0.07660639 -2.61382185 -0.01742548 0 0 Z " fill="#55321E" transform="translate(570.3515625,364.90234375)"/>
<path d="M0 0 C0.33 0 0.66 0 1 0 C1 8.58 1 17.16 1 26 C94.39 26 187.78 26 284 26 C284 17.42 284 8.84 284 0 C284.33 0 284.66 0 285 0 C285.33 9.24 285.66 18.48 286 28 C191.62 28 97.24 28 0 28 C0 18.76 0 9.52 0 0 Z " fill="#1D2043" transform="translate(263,733)"/>
<path d="M0 0 C7.59 0 15.18 0 23 0 C23.33 8.91 23.66 17.82 24 27 C16.08 27 8.16 27 0 27 C0 18.09 0 9.18 0 0 Z " fill="#0B75CA" transform="translate(184,404)"/>
<path d="M0 0 C42.9 0 85.8 0 130 0 C130.33 8.25 130.66 16.5 131 25 C155.75 25.495 155.75 25.495 181 26 C181 26.33 181 26.66 181 27 C164.5 27 148 27 131 27 C131 35.58 131 44.16 131 53 C108.56 53 86.12 53 63 53 C63 35.84 63 18.68 63 1 C42.21 1 21.42 1 0 1 C0 0.67 0 0.34 0 0 Z M65 2 C65 9.59 65 17.18 65 25 C86.12 25 107.24 25 129 25 C129 17.41 129 9.82 129 2 C107.88 2 86.76 2 65 2 Z M64 27 C64 35.25 64 43.5 64 52 C85.78 52 107.56 52 130 52 C130 43.75 130 35.5 130 27 C108.22 27 86.44 27 64 27 Z " fill="#3B97C2" transform="translate(158,90)"/>
<path d="M0 0 C7.92 0 15.84 0 24 0 C24 7.26 24 14.52 24 22 C16.08 22 8.16 22 0 22 C0 14.74 0 7.48 0 0 Z " fill="#012A5C" transform="translate(184,356)"/>
<path d="M0 0 C7.59 0 15.18 0 23 0 C23 7.26 23 14.52 23 22 C15.41 22 7.82 22 0 22 C0 14.74 0 7.48 0 0 Z " fill="#107ED4" transform="translate(290,710)"/>
<path d="M0 0 C7.59 0 15.18 0 23 0 C23 7.26 23 14.52 23 22 C15.41 22 7.82 22 0 22 C0 14.74 0 7.48 0 0 Z " fill="#341F16" transform="translate(285,172)"/>
<path d="M0 0 C7.92 0 15.84 0 24 0 C24 6.93 24 13.86 24 21 C16.08 21 8.16 21 0 21 C0 14.07 0 7.14 0 0 Z " fill="#371F15" transform="translate(250,425)"/>
<path d="M0 0 C30.36 0 60.72 0 92 0 C92 1.98 92 3.96 92 6 C61.32304993 6.18500666 30.66943313 5.64888982 0 5 C0 3.35 0 1.7 0 0 Z " fill="#115CB6" transform="translate(368,426)"/>
<path d="M0 0 C7.26 0 14.52 0 22 0 C22 7.26 22 14.52 22 22 C14.74 22 7.48 22 0 22 C0 14.74 0 7.48 0 0 Z " fill="#341D15" transform="translate(344,425)"/>
<path d="M0 0 C9.9 0 19.8 0 30 0 C30 42.57 30 85.14 30 129 C20.43 129 10.86 129 1 129 C1 128.67 1 128.34 1 128 C9.58 128 18.16 128 27 128 C27 86.42 27 44.84 27 2 C18.42 2 9.84 2 1 2 C0.67 1.34 0.34 0.68 0 0 Z " fill="#17264F" transform="translate(720,195)"/>
<path d="M0 0 C0.33 0 0.66 0 1 0 C1 15.18 1 30.36 1 46 C-5.93 46 -12.86 46 -20 46 C-20 55.24 -20 64.48 -20 74 C-13.4 74 -6.8 74 0 74 C0 86.54 0 99.08 0 112 C-12.54 112 -25.08 112 -38 112 C-38 111.67 -38 111.34 -38 111 C-25.79 111 -13.58 111 -1 111 C-1 99.12 -1 87.24 -1 75 C-7.5370285 75.03958259 -7.5370285 75.03958259 -14.07397461 75.09008789 C-15.28839233 75.09383423 -15.28839233 75.09383423 -16.52734375 75.09765625 C-17.35999756 75.10289307 -18.19265137 75.10812988 -19.05053711 75.11352539 C-21 75 -21 75 -22 74 C-22.08758003 72.00035018 -22.10696576 69.9976389 -22.09765625 67.99609375 C-22.09443359 66.78115234 -22.09121094 65.56621094 -22.08789062 64.31445312 C-22.07532227 62.39536133 -22.07532227 62.39536133 -22.0625 60.4375 C-22.05798828 59.15423828 -22.05347656 57.87097656 -22.04882812 56.54882812 C-22.03699545 53.36583978 -22.02051068 50.18294238 -22 47 C-23.52923096 47.01571045 -23.52923096 47.01571045 -25.08935547 47.03173828 C-28.86503602 47.06788727 -32.64070121 47.09088177 -36.41650391 47.10986328 C-38.05194672 47.11993254 -39.68737149 47.13358881 -41.32275391 47.15087891 C-43.6709437 47.17508705 -46.01889588 47.18647357 -48.3671875 47.1953125 C-49.46726639 47.21079636 -49.46726639 47.21079636 -50.58956909 47.22659302 C-52.39462697 47.22699368 -54.1990783 47.12212755 -56 47 C-58 45 -58 45 -58.22705078 42.20263672 C-58.21134033 40.45877686 -58.21134033 40.45877686 -58.1953125 38.6796875 C-58.18886719 37.42285156 -58.18242187 36.16601562 -58.17578125 34.87109375 C-58.15902344 33.55238281 -58.14226562 32.23367188 -58.125 30.875 C-58.11496983 29.53516279 -58.10584404 28.19531848 -58.09765625 26.85546875 C-58.07402075 23.57013427 -58.04107234 20.28515535 -58 17 C-57.34 16.67 -56.68 16.34 -56 16 C-56 25.57 -56 35.14 -56 45 C-44.12 45 -32.24 45 -20 45 C-20 35.76 -20 26.52 -20 17 C-19.67 17 -19.34 17 -19 17 C-19 25.91 -19 34.82 -19 44 C-12.73 44 -6.46 44 0 44 C0 29.48 0 14.96 0 0 Z " fill="#FAEDA9" transform="translate(532,267)"/>
<path d="M0 0 C9.24 0 18.48 0 28 0 C28 9.57 28 19.14 28 29 C27.67 29 27.34 29 27 29 C27 20.09 27 11.18 27 2 C14.13 1.505 14.13 1.505 1 1 C1 17.5 1 34 1 51 C10.49892964 50.96040374 10.49892964 50.96040374 19.99780273 50.90991211 C21.17286377 50.90741455 22.3479248 50.90491699 23.55859375 50.90234375 C25.37315063 50.89448853 25.37315063 50.89448853 27.22436523 50.88647461 C30 51 30 51 31 52 C31.08726223 53.78071246 31.10699041 55.5648314 31.09765625 57.34765625 C31.09515869 58.31968994 31.09266113 59.29172363 31.09008789 60.29321289 C31.08098389 61.53707764 31.07187988 62.78094238 31.0625 64.0625 C31.041875 68.001875 31.02125 71.94125 31 76 C46.51 76 62.02 76 78 76 C78 68.41 78 60.82 78 53 C70.74 53 63.48 53 56 53 C56 52.67 56 52.34 56 52 C63.92 52 71.84 52 80 52 C79.67 60.58 79.34 69.16 79 78 C62.5 78 46 78 29 78 C29 69.42 29 60.84 29 52 C19.43 52 9.86 52 0 52 C0 34.84 0 17.68 0 0 Z " fill="#53DAF9" transform="translate(128,326)"/>
<path d="M0 0 C9.24 0 18.48 0 28 0 C28 25.41 28 50.82 28 77 C18.76 77 9.52 77 0 77 C0 51.59 0 26.18 0 0 Z M1 2 C1 26.42 1 50.84 1 76 C9.25 76 17.5 76 26 76 C26 51.58 26 27.16 26 2 C17.75 2 9.5 2 1 2 Z " fill="#031731" transform="translate(208,605)"/>
<path d="M0 0 C0.33 0 0.66 0 1 0 C1 8.25 1 16.5 1 25 C10.9 25 20.8 25 31 25 C31 36.22 31 47.44 31 59 C24.4 59 17.8 59 11 59 C11 67.58 11 76.16 11 85 C3.41 85 -4.18 85 -12 85 C-12 91.93 -12 98.86 -12 106 C-12.33 106 -12.66 106 -13 106 C-13.19588601 102.3545658 -13.38030536 98.7086421 -13.5625 95.0625 C-13.61857422 94.02158203 -13.67464844 92.98066406 -13.73242188 91.90820312 C-13.80493164 90.42416992 -13.80493164 90.42416992 -13.87890625 88.91015625 C-13.9260376 87.99371338 -13.97316895 87.07727051 -14.02172852 86.13305664 C-14 84 -14 84 -13 83 C-11.36527118 82.91299658 -9.72685945 82.89298937 -8.08984375 82.90234375 C-7.10048828 82.90556641 -6.11113281 82.90878906 -5.09179688 82.91210938 C-4.05087891 82.92048828 -3.00996094 82.92886719 -1.9375 82.9375 C-0.37032227 82.94426758 -0.37032227 82.94426758 1.22851562 82.95117188 C3.8190666 82.96300087 6.40950559 82.97948311 9 83 C8.99214478 81.92516357 8.99214478 81.92516357 8.98413086 80.82861328 C8.96339333 77.59408438 8.95035016 74.35956944 8.9375 71.125 C8.92912109 69.99707031 8.92074219 68.86914062 8.91210938 67.70703125 C8.90727539 66.09248047 8.90727539 66.09248047 8.90234375 64.4453125 C8.89448853 62.95281982 8.89448853 62.95281982 8.88647461 61.43017578 C9 59 9 59 10 57 C16.27 57 22.54 57 29 57 C29 46.77 29 36.54 29 26 C19.76 26 10.52 26 1 26 C1 29.96 1 33.92 1 38 C0.67 38 0.34 38 0 38 C0 25.46 0 12.92 0 0 Z " fill="#DA9161" transform="translate(532,341)"/>
<path d="M0 0 C0.33 0 0.66 0 1 0 C1 10.89 1 21.78 1 33 C30.7 33 60.4 33 91 33 C91 28.05 91 23.1 91 18 C91.27639363 14.99421929 91.58046815 11.98916445 92 9 C92.33 9 92.66 9 93 9 C93 17.58 93 26.16 93 35 C62.31 35 31.62 35 0 35 C0 23.45 0 11.9 0 0 Z " fill="#DDD39F" transform="translate(367,391)"/>
<path d="M0 0 C9.57 0 19.14 0 29 0 C29 15.51 29 31.02 29 47 C28.67 47 28.34 47 28 47 C28 40.4 28 33.8 28 27 C27.34 27 26.68 27 26 27 C26 19.08 26 11.16 26 3 C18.08 3 10.16 3 2 3 C2.03954567 10.15018443 2.03954567 10.15018443 2.09008789 17.30029297 C2.09258545 18.18861816 2.09508301 19.07694336 2.09765625 19.9921875 C2.10551147 21.35899658 2.10551147 21.35899658 2.11352539 22.75341797 C2 25 2 25 1 27 C-8.24 27 -17.48 27 -27 27 C-27 26.67 -27 26.34 -27 26 C-18.09 26 -9.18 26 0 26 C0 17.42 0 8.84 0 0 Z " fill="#382E2A" transform="translate(360,143)"/>
<path d="M0 0 C8.25 0 16.5 0 25 0 C25 0.33 25 0.66 25 1 C17.08 1 9.16 1 1 1 C1.0721875 2.96710938 1.144375 4.93421875 1.21875 6.9609375 C2.03312713 30.31094624 2.11180563 53.63778328 2 77 C-0.55723229 78.27861615 -2.36737102 78.11336609 -5.2265625 78.09765625 C-6.7734375 78.09282227 -6.7734375 78.09282227 -8.3515625 78.08789062 C-9.97191406 78.07532227 -9.97191406 78.07532227 -11.625 78.0625 C-13.25695312 78.05573242 -13.25695312 78.05573242 -14.921875 78.04882812 C-17.61460662 78.0370179 -20.30731009 78.01908205 -23 78 C-23 81.3 -23 84.6 -23 88 C-11.78 88 -0.56 88 11 88 C11 88.33 11 88.66 11 89 C-0.88 89 -12.76 89 -25 89 C-25 84.71 -25 80.42 -25 76 C-16.75 76 -8.5 76 0 76 C0 50.92 0 25.84 0 0 Z " fill="#F5EAAE" transform="translate(258,289)"/>
<path d="M0 0 C33.99 0 67.98 0 103 0 C103 0.33 103 0.66 103 1 C92.93200089 1.13199133 82.86398342 1.2624762 72.79594135 1.39115143 C68.11859001 1.45097552 63.44124594 1.51127671 58.76391602 1.57275391 C54.23161973 1.63230585 49.69930762 1.69049282 45.16698265 1.74781799 C43.45665067 1.76967404 41.74632441 1.79198368 40.03600502 1.81480408 C27.35520497 1.98355453 14.68366729 2 2 2 C2 16.52 2 31.04 2 46 C8.93 46 15.86 46 23 46 C23 46.33 23 46.66 23 47 C15.41 47 7.82 47 0 47 C0 31.49 0 15.98 0 0 Z " fill="#1A95D9" transform="translate(185,456)"/>
<path d="M0 0 C0.33 0 0.66 0 1 0 C1 6.27 1 12.54 1 19 C30.7 19 60.4 19 91 19 C91 14.71 91 10.42 91 6 C91.66 6 92.32 6 93 6 C93 10.95 93 15.9 93 21 C62.31 21 31.62 21 0 21 C0 14.07 0 7.14 0 0 Z " fill="#1094E1" transform="translate(367,426)"/>
<path d="M0 0 C9.24 0 18.48 0 28 0 C28 8.25 28 16.5 28 25 C36.91 25 45.82 25 55 25 C55 25.33 55 25.66 55 26 C36.85 26 18.7 26 0 26 C0 17.42 0 8.84 0 0 Z M2 2 C2 9.59 2 17.18 2 25 C9.59 25 17.18 25 25 25 C25 17.41 25 9.82 25 2 C17.41 2 9.82 2 2 2 Z " fill="#332722" transform="translate(479,144)"/>
<path d="M0 0 C9.9 0 19.8 0 30 0 C30 25.74 30 51.48 30 78 C29.34 77.67 28.68 77.34 28 77 C28.33 52.25 28.66 27.5 29 2 C20.09 2 11.18 2 2 2 C2 9.59 2 17.18 2 25 C10.58 25 19.16 25 28 25 C28 25.33 28 25.66 28 26 C23.52084672 26.02886338 19.04171709 26.04675187 14.5625 26.0625 C13.28310547 26.07087891 12.00371094 26.07925781 10.68554688 26.08789062 C8.86313477 26.09272461 8.86313477 26.09272461 7.00390625 26.09765625 C5.87799072 26.10289307 4.7520752 26.10812988 3.59204102 26.11352539 C1 26 1 26 0 25 C-0.08737645 23.14630389 -0.10698153 21.28932459 -0.09765625 19.43359375 C-0.09515869 18.42095459 -0.09266113 17.40831543 -0.09008789 16.36499023 C-0.08098389 15.06891846 -0.07187988 13.77284668 -0.0625 12.4375 C-0.041875 8.333125 -0.02125 4.22875 0 0 Z " fill="#0754A4" transform="translate(661,300)"/>
<path d="M0 0 C1.65 0 3.3 0 5 0 C5 8.58 5 17.16 5 26 C-30.64 26 -66.28 26 -103 26 C-103 25.67 -103 25.34 -103 25 C-77.26 25 -51.52 25 -25 25 C-25 17.74 -25 10.48 -25 3 C-24.67 3 -24.34 3 -24 3 C-24 9.93 -24 16.86 -24 24 C-15.09 24 -6.18 24 3 24 C3 16.41 3 8.82 3 1 C2.01 0.67 1.02 0.34 0 0 Z " fill="#0154A4" transform="translate(524,65)"/>
<path d="M0 0 C22.77 0 45.54 0 69 0 C69 8.25 69 16.5 69 25 C68.67 25 68.34 25 68 25 C68 17.08 68 9.16 68 1 C46.22 1 24.44 1 2 1 C2 8.59 2 16.18 2 24 C23.45 24 44.9 24 67 24 C67 24.33 67 24.66 67 25 C44.89 25.33 22.78 25.66 0 26 C0 17.42 0 8.84 0 0 Z " fill="#0D1422" transform="translate(529,117)"/>
<path d="M0 0 C0.33 0 0.66 0 1 0 C1 6.6 1 13.2 1 20 C23.11 20 45.22 20 68 20 C68 15.71 68 11.42 68 7 C68.27145952 4.65866165 68.56888191 2.31725975 69 0 C69.33 0 69.66 0 70 0 C70 7.26 70 14.52 70 22 C46.9 22 23.8 22 0 22 C0 14.74 0 7.48 0 0 Z " fill="#DE8D59" transform="translate(274,425)"/>
<path d="M0 0 C7.92 0 15.84 0 24 0 C24 7.59 24 15.18 24 23 C32.58 23 41.16 23 50 23 C50 27.62 50 32.24 50 37 C34.16 36.67 18.32 36.34 2 36 C2 35.67 2 35.34 2 35 C17.18 35 32.36 35 48 35 C48 31.7 48 28.4 48 25 C46.70964844 25.02320313 45.41929687 25.04640625 44.08984375 25.0703125 C42.37240166 25.08908236 40.65495326 25.10728125 38.9375 25.125 C38.08994141 25.14175781 37.24238281 25.15851563 36.36914062 25.17578125 C35.53447266 25.18222656 34.69980469 25.18867188 33.83984375 25.1953125 C33.08050537 25.20578613 32.32116699 25.21625977 31.53881836 25.22705078 C29 25 29 25 22 23 C22 16.07 22 9.14 22 2 C15.07 1.67 8.14 1.34 1 1 C1 3.97 1 6.94 1 10 C0.67 10 0.34 10 0 10 C0 6.7 0 3.4 0 0 Z " fill="#016FC8" transform="translate(184,289)"/>
<path d="M0 0 C0.33 0 0.66 0 1 0 C1 8.25 1 16.5 1 25 C11.23 25 21.46 25 32 25 C32 25.33 32 25.66 32 26 C21.77 26 11.54 26 1 26 C1 43.49 1 60.98 1 79 C0.67 79 0.34 79 0 79 C0 61.51 0 44.02 0 26 C-22.77 26 -45.54 26 -69 26 C-69 25.67 -69 25.34 -69 25 C-46.23 25 -23.46 25 0 25 C0 16.75 0 8.5 0 0 Z " fill="#2A81A2" transform="translate(598,91)"/>
<path d="M0 0 C20.79 0 41.58 0 63 0 C62.67 8.25 62.34 16.5 62 25 C46.82 25 31.64 25 16 25 C16 24.67 16 24.34 16 24 C30.85 24 45.7 24 61 24 C61 17.07 61 10.14 61 3 C54.07 3 47.14 3 40 3 C40 2.67 40 2.34 40 2 C20.2 1.505 20.2 1.505 0 1 C0 0.67 0 0.34 0 0 Z " fill="#208EDA" transform="translate(158,116)"/>
<path d="M0 0 C0.33 0 0.66 0 1 0 C1.17245095 1.93699373 1.33757169 3.87464008 1.5 5.8125 C1.5928125 6.89144531 1.685625 7.97039062 1.78125 9.08203125 C2.05848392 14.04748877 2 19.02680917 2 24 C-19.45 24 -40.9 24 -63 24 C-63 23.34 -63 22.68 -63 22 C-42.21 22 -21.42 22 0 22 C0 14.74 0 7.48 0 0 Z " fill="#0B244E" transform="translate(286,118)"/>
<path d="M0 0 C9.24 0 18.48 0 28 0 C29.2263757 2.45275141 29.11415314 4.0505781 29.09765625 6.7890625 C29.09515869 7.63678223 29.09266113 8.48450195 29.09008789 9.35791016 C29.08098389 10.4360498 29.07187988 11.51418945 29.0625 12.625 C29.041875 16.04875 29.02125 19.4725 29 23 C19.43 23 9.86 23 0 23 C0 15.41 0 7.82 0 0 Z M2 3 C2 9.27 2 15.54 2 22 C10.58 22 19.16 22 28 22 C28 15.73 28 9.46 28 3 C19.42 3 10.84 3 2 3 Z " fill="#0358A8" transform="translate(662,171)"/>
<path d="M0 0 C5.94 0.33 11.88 0.66 18 1 C18 15.85 18 30.7 18 46 C12.06 46 6.12 46 0 46 C0 45.67 0 45.34 0 45 C5.28 45 10.56 45 16 45 C16 31.14 16 17.28 16 3 C11.05 2.67 6.1 2.34 1 2 C1.020625 3.7325 1.04125 5.465 1.0625 7.25 C1.06999143 13.54279768 0.62143366 19.74127529 0 26 C-0.33 26 -0.66 26 -1 26 C-1.02886751 21.85418113 -1.04675327 17.70838784 -1.0625 13.5625 C-1.07087891 12.37849609 -1.07925781 11.19449219 -1.08789062 9.97460938 C-1.09111328 8.84990234 -1.09433594 7.72519531 -1.09765625 6.56640625 C-1.10289307 5.52427979 -1.10812988 4.48215332 -1.11352539 3.40844727 C-1 1 -1 1 0 0 Z " fill="#402515" transform="translate(462,400)"/>
<path d="M0 0 C9.57 0 19.14 0 29 0 C29 8.58 29 17.16 29 26 C19.43 26 9.86 26 0 26 C0 25.01 0 24.02 0 23 C8.91 23 17.82 23 27 23 C27.33 15.74 27.66 8.48 28 1 C18.76 1 9.52 1 0 1 C0 0.67 0 0.34 0 0 Z " fill="#001034" transform="translate(662,117)"/>
<path d="M0 0 C21.12 0 42.24 0 64 0 C64 0.99 64 1.98 64 3 C47.5 3 31 3 14 3 C14 2.67 14 2.34 14 2 C7.07 1.505 7.07 1.505 0 1 C0 0.67 0 0.34 0 0 Z " fill="#013571" transform="translate(185,431)"/>
<path d="M0 0 C0.33 0 0.66 0 1 0 C1 7.92 1 15.84 1 24 C-16.34053922 24.62771183 -33.645107 25.17412936 -51 25 C-51 24.01 -51 23.02 -51 22 C-45.18335272 21.97513763 -39.36673691 21.95706351 -33.55004883 21.94506836 C-31.5744574 21.94006359 -29.59886964 21.93325775 -27.62329102 21.92456055 C-24.77098686 21.91232508 -21.91873201 21.90673298 -19.06640625 21.90234375 C-18.19415909 21.89718246 -17.32191193 21.89202118 -16.42323303 21.88670349 C-15.58304123 21.88662796 -14.74284943 21.88655243 -13.87719727 21.88647461 C-13.15105728 21.884254 -12.4249173 21.88203339 -11.67677307 21.87974548 C-7.77058367 22.05523175 -3.8862139 22.56819846 0 23 C0 15.41 0 7.82 0 0 Z " fill="#342326" transform="translate(636,355)"/>
<path d="M0 0 C0.33 0 0.66 0 1 0 C1 7.92 1 15.84 1 24 C6.61 24 12.22 24 18 24 C18 30.93 18 37.86 18 45 C26.25 45 34.5 45 43 45 C43 45.33 43 45.66 43 46 C34.42 46 25.84 46 17 46 C17 39.4 17 32.8 17 26 C12.05 26 7.1 26 2 26 C1.67 33.92 1.34 41.84 1 50 C0.67 50 0.34 50 0 50 C0 33.5 0 17 0 0 Z " fill="#1B8FD3" transform="translate(207,380)"/>
<path d="M0 0 C4.80549747 -0.02468447 9.61095818 -0.04285255 14.41650391 -0.05493164 C16.05192711 -0.05996621 17.6873458 -0.06679427 19.32275391 -0.07543945 C21.67090975 -0.08754335 24.01900619 -0.093237 26.3671875 -0.09765625 C27.10057343 -0.10281754 27.83395935 -0.10797882 28.58956909 -0.11329651 C33.77225659 -0.11387171 33.77225659 -0.11387171 36 1 C36 8.59 36 16.18 36 24 C44.25 24 52.5 24 61 24 C61 24.33 61 24.66 61 25 C51.76 25.33 42.52 25.66 33 26 C33 17.75 33 9.5 33 1 C22.11 1 11.22 1 0 1 C0 0.67 0 0.34 0 0 Z " fill="#2D3F5D" transform="translate(600,169)"/>
<path d="M0 0 C0.99 0 1.98 0 3 0 C3 8.25 3 16.5 3 25 C-6.57 25 -16.14 25 -26 25 C-26 24.34 -26 23.68 -26 23 C-17.09 23 -8.18 23 1 23 C0.67 22.01 0.34 21.02 0 20 C-0.08106686 18.44578271 -0.10756898 16.88832973 -0.09765625 15.33203125 C-0.09443359 14.43935547 -0.09121094 13.54667969 -0.08789062 12.62695312 C-0.07951172 11.69818359 -0.07113281 10.76941406 -0.0625 9.8125 C-0.05798828 8.87212891 -0.05347656 7.93175781 -0.04882812 6.96289062 C-0.03704626 4.64186288 -0.02059558 2.32096356 0 0 Z " fill="#14243D" transform="translate(184,170)"/>
<path d="M0 0 C9.24 0 18.48 0 28 0 C27.67 8.58 27.34 17.16 27 26 C26.67 26 26.34 26 26 26 C26 18.08 26 10.16 26 2 C17.75 2 9.5 2 1 2 C1 9.92 1 17.84 1 26 C0.67 26 0.34 26 0 26 C0 17.42 0 8.84 0 0 Z " fill="#7A472A" transform="translate(419,193)"/>
<path d="M0 0 C0.33 0 0.66 0 1 0 C1 6.6 1 13.2 1 20 C13.87 19.67 26.74 19.34 40 19 C40 18.34 40 17.68 40 17 C32.41 17 24.82 17 17 17 C17 16.67 17 16.34 17 16 C25.25 16 33.5 16 42 16 C42 17.65 42 19.3 42 21 C28.14 21 14.28 21 0 21 C0 14.07 0 7.14 0 0 Z " fill="#1DA2F4" transform="translate(208,410)"/>
<path d="M0 0 C0.9583374 0.00523682 1.9166748 0.01047363 2.90405273 0.01586914 C4.45576172 0.02070313 4.45576172 0.02070313 6.03881836 0.02563477 C7.12743164 0.03401367 8.21604492 0.04239258 9.33764648 0.05102539 C10.97636719 0.05779297 10.97636719 0.05779297 12.64819336 0.06469727 C15.35723144 0.07652713 18.06616248 0.09300996 20.77514648 0.11352539 C20.77514648 0.44352539 20.77514648 0.77352539 20.77514648 1.11352539 C13.51514648 1.11352539 6.25514648 1.11352539 -1.22485352 1.11352539 C-1.22485352 7.71352539 -1.22485352 14.31352539 -1.22485352 21.11352539 C-12.60985352 20.61852539 -12.60985352 20.61852539 -24.22485352 20.11352539 C-24.22485352 19.78352539 -24.22485352 19.45352539 -24.22485352 19.11352539 C-17.29485352 19.11352539 -10.36485352 19.11352539 -3.22485352 19.11352539 C-3.26443121 13.23469536 -3.26443121 13.23469536 -3.31494141 7.35595703 C-3.31743896 6.62755615 -3.31993652 5.89915527 -3.32250977 5.14868164 C-3.33036499 4.02538452 -3.33036499 4.02538452 -3.33837891 2.87939453 C-3.16496843 0.18202247 -2.68916076 0.13721714 0 0 Z " fill="#FAE6A0" transform="translate(344.224853515625,389.886474609375)"/>
<path d="M0 0 C0.99 0.33 1.98 0.66 3 1 C4.40664926 1.14492123 5.8181133 1.24628931 7.23046875 1.31640625 C7.95387451 1.35451416 8.67728027 1.39262207 9.42260742 1.43188477 C10.33502197 1.47498779 11.24743652 1.51809082 12.1875 1.5625 C16.5496875 1.7790625 16.5496875 1.7790625 21 2 C21 7.94 21 13.88 21 20 C20.67 20 20.34 20 20 20 C20 14.39 20 8.78 20 3 C14.39 3 8.78 3 3 3 C3 8.94 3 14.88 3 21 C2.01 21.33 1.02 21.66 0 22 C0 14.74 0 7.48 0 0 Z " fill="#482C1E" transform="translate(344,425)"/>
<path d="M0 0 C0.33 0 0.66 0 1 0 C1 8.58 1 17.16 1 26 C6.61 26 12.22 26 18 26 C18 26.33 18 26.66 18 27 C12.39 27 6.78 27 1 27 C1 29.64 1 32.28 1 35 C0.67 35 0.34 35 0 35 C0 32.36 0 29.72 0 27 C-9.57 27 -19.14 27 -29 27 C-29 26.67 -29 26.34 -29 26 C-19.43 26 -9.86 26 0 26 C0 17.42 0 8.84 0 0 Z " fill="#146D9F" transform="translate(157,117)"/>
<path d="M0 0 C0.33 0 0.66 0 1 0 C1 8.25 1 16.5 1 25 C0.01 25 -0.98 25 -2 25 C-2 18.4 -2 11.8 -2 5 C-1.67 5 -1.34 5 -1 5 C-0.67 3.35 -0.34 1.7 0 0 Z " fill="#EDE9E7" transform="translate(283,169)"/>
<path d="M0 0 C1.12329712 0.07069702 1.12329712 0.07069702 2.26928711 0.14282227 C3.07817383 0.19116211 3.88706055 0.23950195 4.72045898 0.28930664 C5.99566406 0.37341797 5.99566406 0.37341797 7.29663086 0.45922852 C8.57763672 0.53753906 8.57763672 0.53753906 9.88452148 0.61743164 C12.00135081 0.74751612 14.1177833 0.88402822 16.23413086 1.02172852 C16.23413086 1.35172852 16.23413086 1.68172852 16.23413086 2.02172852 C10.62413086 2.02172852 5.01413086 2.02172852 -0.76586914 2.02172852 C-0.74524414 3.75422852 -0.72461914 5.48672852 -0.70336914 7.27172852 C-0.69587771 13.56452619 -1.14443548 19.76300381 -1.76586914 26.02172852 C-2.09586914 26.02172852 -2.42586914 26.02172852 -2.76586914 26.02172852 C-2.79473665 21.87590965 -2.81262242 17.73011635 -2.82836914 13.58422852 C-2.83674805 12.40022461 -2.84512695 11.2162207 -2.85375977 9.99633789 C-2.85698242 8.87163086 -2.86020508 7.74692383 -2.86352539 6.58813477 C-2.86876221 5.5460083 -2.87399902 4.50388184 -2.87939453 3.43017578 C-2.71928578 0.03346004 -2.71928578 0.03346004 0 0 Z " fill="#402E22" transform="translate(463.765869140625,399.978271484375)"/>
<path d="M0 0 C0.33 0 0.66 0 1 0 C1 6.6 1 13.2 1 20 C-5.93 19.505 -5.93 19.505 -13 19 C-13 18.67 -13 18.34 -13 18 C-9.04 18 -5.08 18 -1 18 C-0.505 9.09 -0.505 9.09 0 0 Z " fill="#219AE3" transform="translate(157,152)"/>
<path d="M0 0 C0.33 0 0.66 0 1 0 C1 7.59 1 15.18 1 23 C0.67 23 0.34 23 0 23 C-0.33820166 21.4176994 -0.67035939 19.83410625 -1 18.25 C-1.185625 17.36828125 -1.37125 16.4865625 -1.5625 15.578125 C-2 13 -2 13 -2 9 C-1.34 9 -0.68 9 0 9 C0 6.03 0 3.06 0 0 Z " fill="#14325B" transform="translate(635,170)"/>
<path d="M0 0 C5.94 0.33 11.88 0.66 18 1 C18 1.33 18 1.66 18 2 C8.595 2.495 8.595 2.495 -1 3 C-0.67 2.01 -0.34 1.02 0 0 Z " fill="#49382A" transform="translate(462,400)"/>
</svg>
